Raleway-ExtraLight-Italic-TTF.ufo
<glyph name="parenleft" format="1">
  <advance width="238"/>
  <unicode hex="0028"/>
  <outline>
    <contour>
      <point x="48" y="257" type="qcurve"/>
      <point x="48" y="324"/>
      <point x="83" y="445"/>
      <point x="143" y="560"/>
      <point x="224" y="672"/>
      <point x="269" y="730" type="qcurve"/>
      <point x="292" y="714" type="line"/>
      <point x="258" y="675"/>
      <point x="184" y="569"/>
      <point x="122" y="450"/>
      <point x="81" y="325"/>
      <point x="81" y="265" type="qcurve"/>
      <point x="81" y="234"/>
      <point x="88" y="163"/>
      <point x="102" y="90"/>
      <point x="123" y="19"/>
      <point x="137" y="-13" type="qcurve"/>
      <point x="108" y="-29" type="line"/>
      <point x="79" y="38"/>
      <point x="48" y="189"/>
    </contour>
  </outline>
</glyph>
<glyph name="hyphen" format="1">
  <advance width="404"/>
  <unicode hex="002D"/>
  <outline>
    <contour>
      <point x="57" y="255" type="line"/>
      <point x="63" y="288" type="line"/>
      <point x="335" y="288" type="line"/>
      <point x="328" y="255" type="line"/>
    </contour>
  </outline>
</glyph>
<glyph name="three" format="1">
  <advance width="496"/>
  <unicode hex="0033"/>
  <outline>
    <contour>
      <point x="147" y="-147" type="qcurve"/>
      <point x="76" y="-147"/>
      <point x="-17" y="-80"/>
      <point x="-28" y="-23" type="qcurve"/>
      <point x="3" y="-5" type="line"/>
      <point x="10" y="-55"/>
      <point x="90" y="-115"/>
      <point x="155" y="-115" type="qcurve"/>
      <point x="201" y="-115"/>
      <point x="279" y="-85"/>
      <point x="335" y="-32"/>
      <point x="367" y="43"/>
      <point x="367" y="88" type="qcurve"/>
      <point x="367" y="149"/>
      <point x="291" y="221"/>
      <point x="219" y="221" type="qcurve"/>
      <point x="197" y="221" type="line"/>
      <point x="203" y="252" type="line"/>
      <point x="226" y="252" type="line"/>
      <point x="320" y="252"/>
      <point x="426" y="344"/>
      <point x="426" y="420" type="qcurve"/>
      <point x="426" y="477"/>
      <point x="354" y="544"/>
      <point x="294" y="544" type="qcurve"/>
      <point x="236" y="544"/>
      <point x="136" y="485"/>
      <point x="105" y="436" type="qcurve"/>
      <point x="84" y="453" type="line"/>
      <point x="100" y="481"/>
      <point x="148" y="526"/>
      <point x="205" y="558"/>
      <point x="270" y="576"/>
      <point x="303" y="576" type="qcurve"/>
      <point x="339" y="576"/>
      <point x="398" y="554"/>
      <point x="440" y="515"/>
      <point x="462" y="460"/>
      <point x="462" y="428" type="qcurve"/>
      <point x="462" y="391"/>
      <point x="436" y="326"/>
      <point x="390" y="275"/>
      <point x="326" y="241"/>
      <point x="289" y="236" type="qcurve"/>
      <point x="343" y="228"/>
      <point x="401" y="147"/>
      <point x="401" y="89" type="qcurve"/>
      <point x="401" y="38"/>
      <point x="361" y="-49"/>
      <point x="292" y="-112"/>
      <point x="200" y="-147"/>
    </contour>
  </outline>
</glyph>
<glyph name="eight" format="1">
  <advance width="561"/>
  <unicode hex="0038"/>
  <outline>
    <contour>
      <point x="212" y="-7" type="qcurve"/>
      <point x="167" y="-7"/>
      <point x="98" y="20"/>
      <point x="50" y="66"/>
      <point x="25" y="127"/>
      <point x="25" y="161" type="qcurve"/>
      <point x="25" y="204"/>
      <point x="61" y="276"/>
      <point x="116" y="332"/>
      <point x="185" y="371"/>
      <point x="218" y="381" type="qcurve"/>
      <point x="178" y="398"/>
      <point x="123" y="464"/>
      <point x="123" y="512" type="qcurve"/>
      <point x="123" y="559"/>
      <point x="168" y="633"/>
      <point x="239" y="684"/>
      <point x="326" y="710"/>
      <point x="368" y="710" type="qcurve"/>
      <point x="401" y="710"/>
      <point x="463" y="691"/>
      <point x="510" y="654"/>
      <point x="539" y="600"/>
      <point x="539" y="566" type="qcurve"/>
      <point x="539" y="531"/>
      <point x="511" y="473"/>
      <point x="465" y="427"/>
      <point x="407" y="392"/>
      <point x="376" y="381" type="qcurve"/>
      <point x="426" y="364"/>
      <point x="490" y="280"/>
      <point x="490" y="223" type="qcurve"/>
      <point x="490" y="171"/>
      <point x="442" y="86"/>
      <point x="364" y="26"/>
      <point x="264" y="-7"/>
    </contour>
    <contour>
      <point x="222" y="23" type="qcurve"/>
      <point x="261" y="23"/>
      <point x="344" y="51"/>
      <point x="412" y="103"/>
      <point x="456" y="176"/>
      <point x="456" y="221" type="qcurve"/>
      <point x="456" y="255"/>
      <point x="428" y="309"/>
      <point x="381" y="346"/>
      <point x="323" y="365"/>
      <point x="293" y="365" type="qcurve"/>
      <point x="254" y="365"/>
      <point x="171" y="336"/>
      <point x="104" y="283"/>
      <point x="60" y="210"/>
      <point x="60" y="166" type="qcurve"/>
      <point x="60" y="132"/>
      <point x="88" y="79"/>
      <point x="134" y="42"/>
      <point x="192" y="23"/>
    </contour>
    <contour>
      <point x="300" y="395" type="qcurve"/>
      <point x="332" y="395"/>
      <point x="404" y="417"/>
      <point x="464" y="460"/>
      <point x="504" y="521"/>
      <point x="504" y="560" type="qcurve"/>
      <point x="504" y="588"/>
      <point x="481" y="632"/>
      <point x="441" y="662"/>
      <point x="388" y="678"/>
      <point x="359" y="678" type="qcurve"/>
      <point x="323" y="678"/>
      <point x="250" y="655"/>
      <point x="193" y="612"/>
      <point x="157" y="551"/>
      <point x="157" y="514" type="qcurve"/>
      <point x="157" y="485"/>
      <point x="182" y="441"/>
      <point x="222" y="411"/>
      <point x="274" y="395"/>
    </contour>
  </outline>
</glyph>
<glyph name="z" format="1">
  <advance width="460"/>
  <unicode hex="007A"/>
  <outline>
    <contour>
      <point x="280" y="520" type="move" name="top"/>
    </contour>
    <contour>
      <point x="-30" y="28" type="line"/>
      <point x="430" y="491" type="line"/>
      <point x="74" y="491" type="line"/>
      <point x="80" y="520" type="line"/>
      <point x="476" y="520" type="line"/>
      <point x="470" y="492" type="line"/>
      <point x="11" y="29" type="line"/>
      <point x="370" y="29" type="line"/>
      <point x="363" y="0" type="line"/>
      <point x="-36" y="0" type="line"/>
    </contour>
  </outline>
</glyph>
<glyph name="braceleft" format="1">
  <advance width="227"/>
  <unicode hex="007B"/>
  <outline>
    <contour>
      <point x="212" y="709" type="line"/>
      <point x="150" y="418" type="line"/>
      <point x="148" y="410"/>
      <point x="134" y="374"/>
      <point x="116" y="360" type="qcurve"/>
      <point x="123" y="352"/>
      <point x="127" y="333"/>
      <point x="127" y="323" type="qcurve"/>
      <point x="127" y="310"/>
      <point x="125" y="302" type="qcurve"/>
      <point x="61" y="0" type="line"/>
      <point x="114" y="0" type="line"/>
      <point x="107" y="-31" type="line"/>
      <point x="44" y="-31" type="line"/>
      <point x="38" y="-31"/>
      <point x="28" y="-23"/>
      <point x="28" y="-12" type="qcurve"/>
      <point x="28" y="-5"/>
      <point x="29" y="-1" type="qcurve"/>
      <point x="93" y="297" type="line"/>
      <point x="95" y="307"/>
      <point x="95" y="314" type="qcurve"/>
      <point x="95" y="326"/>
      <point x="84" y="344"/>
      <point x="72" y="346" type="qcurve"/>
      <point x="78" y="376" type="line"/>
      <point x="88" y="376"/>
      <point x="103" y="388"/>
      <point x="113" y="403"/>
      <point x="118" y="419"/>
      <point x="119" y="423" type="qcurve"/>
      <point x="180" y="710" type="line"/>
      <point x="184" y="730"/>
      <point x="203" y="740"/>
      <point x="208" y="740" type="qcurve"/>
      <point x="271" y="740" type="line"/>
      <point x="264" y="709" type="line"/>
    </contour>
  </outline>
</glyph>
<glyph name="cent" format="1">
  <advance width="527"/>
  <unicode hex="00A2"/>
  <outline>
    <contour>
      <point x="175" y="-120" type="line"/>
      <point x="199" y="-9" type="line"/>
      <point x="159" y="-6"/>
      <point x="96" y="34"/>
      <point x="53" y="94"/>
      <point x="30" y="170"/>
      <point x="30" y="210" type="qcurve"/>
      <point x="30" y="267"/>
      <point x="75" y="377"/>
      <point x="152" y="466"/>
      <point x="255" y="524"/>
      <point x="313" y="528" type="qcurve"/>
      <point x="338" y="645" type="line"/>
      <point x="362" y="645" type="line"/>
      <point x="337" y="528" type="line"/>
      <point x="410" y="526"/>
      <point x="486" y="461"/>
      <point x="500" y="410" type="qcurve"/>
      <point x="464" y="398" type="line"/>
      <point x="449" y="447"/>
      <point x="379" y="494"/>
      <point x="331" y="496" type="qcurve"/>
      <point x="230" y="22" type="line"/>
      <point x="251" y="22"/>
      <point x="306" y="37"/>
      <point x="358" y="64"/>
      <point x="401" y="102"/>
      <point x="412" y="125" type="qcurve"/>
      <point x="444" y="115" type="line"/>
      <point x="427" y="84"/>
      <point x="374" y="37"/>
      <point x="313" y="6"/>
      <point x="250" y="-10"/>
      <point x="223" y="-10" type="qcurve"/>
      <point x="199" y="-120" type="line"/>
    </contour>
    <contour>
      <point x="65" y="214" type="qcurve"/>
      <point x="65" y="178"/>
      <point x="85" y="112"/>
      <point x="121" y="61"/>
      <point x="173" y="27"/>
      <point x="206" y="24" type="qcurve"/>
      <point x="306" y="495" type="line"/>
      <point x="254" y="492"/>
      <point x="166" y="437"/>
      <point x="101" y="356"/>
      <point x="65" y="260"/>
    </contour>
  </outline>
</glyph>
<glyph name="sterling" format="1">
  <advance width="455"/>
  <unicode hex="00A3"/>
  <outline>
    <contour>
      <point x="65" y="368" type="line"/>
      <point x="164" y="368" type="line"/>
      <point x="153" y="407"/>
      <point x="128" y="479"/>
      <point x="128" y="518" type="qcurve"/>
      <point x="128" y="558"/>
      <point x="162" y="629"/>
      <point x="219" y="683"/>
      <point x="290" y="715"/>
      <point x="328" y="715" type="qcurve"/>
      <point x="376" y="715"/>
      <point x="449" y="658"/>
      <point x="465" y="610" type="qcurve"/>
      <point x="438" y="589" type="line"/>
      <point x="424" y="634"/>
      <point x="361" y="684"/>
      <point x="319" y="684" type="qcurve"/>
      <point x="290" y="684"/>
      <point x="233" y="658"/>
      <point x="189" y="614"/>
      <point x="162" y="555"/>
      <point x="162" y="522" type="qcurve"/>
      <point x="162" y="484"/>
      <point x="187" y="410"/>
      <point x="198" y="368" type="qcurve"/>
      <point x="366" y="368" type="line"/>
      <point x="359" y="338" type="line"/>
      <point x="204" y="338" type="line"/>
      <point x="206" y="326"/>
      <point x="209" y="303"/>
      <point x="209" y="290" type="qcurve"/>
      <point x="209" y="260"/>
      <point x="199" y="207"/>
      <point x="165" y="148"/>
      <point x="102" y="77"/>
      <point x="49" y="28" type="qcurve"/>
      <point x="84" y="36"/>
      <point x="119" y="36" type="qcurve"/>
      <point x="140" y="36"/>
      <point x="174" y="30"/>
      <point x="205" y="23"/>
      <point x="236" y="17"/>
      <point x="254" y="17" type="qcurve"/>
      <point x="290" y="17"/>
      <point x="349" y="37" type="qcurve"/>
      <point x="352" y="8" type="line"/>
      <point x="294" y="-15"/>
      <point x="245" y="-15" type="qcurve"/>
      <point x="224" y="-15"/>
      <point x="189" y="-8"/>
      <point x="156" y="-1"/>
      <point x="121" y="6"/>
      <point x="100" y="6" type="qcurve"/>
      <point x="79" y="6"/>
      <point x="26" y="-1"/>
      <point x="3" y="-7" type="qcurve"/>
      <point x="-3" y="19" type="line"/>
      <point x="57" y="72"/>
      <point x="127" y="145"/>
      <point x="165" y="203"/>
      <point x="176" y="254"/>
      <point x="176" y="286" type="qcurve"/>
      <point x="176" y="300"/>
      <point x="173" y="325"/>
      <point x="171" y="338" type="qcurve"/>
      <point x="59" y="338" type="line"/>
    </contour>
  </outline>
</glyph>
<glyph name="copyright" format="1">
  <advance width="839"/>
  <unicode hex="00A9"/>
  <outline>
    <contour>
      <point x="430" y="-7" type="qcurve"/>
      <point x="352" y="-7"/>
      <point x="219" y="48"/>
      <point x="122" y="145"/>
      <point x="67" y="277"/>
      <point x="67" y="355" type="qcurve"/>
      <point x="67" y="432"/>
      <point x="122" y="564"/>
      <point x="219" y="660"/>
      <point x="352" y="715"/>
      <point x="430" y="715" type="qcurve"/>
      <point x="508" y="715"/>
      <point x="641" y="660"/>
      <point x="738" y="564"/>
      <point x="793" y="432"/>
      <point x="793" y="355" type="qcurve"/>
      <point x="793" y="277"/>
      <point x="738" y="145"/>
      <point x="641" y="48"/>
      <point x="508" y="-7"/>
    </contour>
    <contour>
      <point x="431" y="17" type="qcurve"/>
      <point x="502" y="17"/>
      <point x="625" y="66"/>
      <point x="716" y="154"/>
      <point x="768" y="277"/>
      <point x="768" y="352" type="qcurve"/>
      <point x="768" y="425"/>
      <point x="717" y="550"/>
      <point x="627" y="640"/>
      <point x="504" y="691"/>
      <point x="431" y="691" type="qcurve"/>
      <point x="358" y="691"/>
      <point x="234" y="640"/>
      <point x="143" y="550"/>
      <point x="92" y="427"/>
      <point x="92" y="354" type="qcurve"/>
      <point x="92" y="282"/>
      <point x="143" y="158"/>
      <point x="233" y="68"/>
      <point x="357" y="17"/>
    </contour>
    <contour>
      <point x="437" y="126" type="qcurve"/>
      <point x="397" y="126"/>
      <point x="317" y="157"/>
      <point x="254" y="216"/>
      <point x="214" y="301"/>
      <point x="214" y="355" type="qcurve"/>
      <point x="214" y="395"/>
      <point x="240" y="478"/>
      <point x="293" y="545"/>
      <point x="374" y="587"/>
      <point x="430" y="587" type="qcurve"/>
      <point x="459" y="587"/>
      <point x="514" y="574"/>
      <point x="560" y="549"/>
      <point x="596" y="510"/>
      <point x="606" y="484" type="qcurve"/>
      <point x="574" y="473" type="line"/>
      <point x="563" y="499"/>
      <point x="527" y="531"/>
      <point x="486" y="549"/>
      <point x="446" y="555"/>
      <point x="430" y="555" type="qcurve"/>
      <point x="383" y="555"/>
      <point x="315" y="519"/>
      <point x="270" y="461"/>
      <point x="249" y="390"/>
      <point x="249" y="355" type="qcurve"/>
      <point x="249" y="308"/>
      <point x="284" y="234"/>
      <point x="338" y="183"/>
      <point x="403" y="157"/>
      <point x="433" y="157" type="qcurve"/>
      <point x="454" y="157"/>
      <point x="499" y="169"/>
      <point x="541" y="191"/>
      <point x="574" y="224"/>
      <point x="583" y="244" type="qcurve"/>
      <point x="615" y="235" type="line"/>
      <point x="610" y="220"/>
      <point x="581" y="183"/>
      <point x="534" y="149"/>
      <point x="473" y="126"/>
    </contour>
  </outline>
</glyph>
<glyph name="ordfeminine" format="1">
  <advance width="407"/>
  <unicode hex="00AA"/>
  <outline>
    <contour>
      <point x="197" y="519" type="move" name="top"/>
    </contour>
    <contour>
      <point x="390" y="11" type="move" name="bottom"/>
    </contour>
    <contour>
      <point x="170" y="350" type="qcurve"/>
      <point x="128" y="350"/>
      <point x="78" y="401"/>
      <point x="78" y="439" type="qcurve"/>
      <point x="78" y="466"/>
      <point x="104" y="511"/>
      <point x="149" y="543"/>
      <point x="209" y="561"/>
      <point x="244" y="561" type="qcurve"/>
      <point x="272" y="561"/>
      <point x="325" y="552"/>
      <point x="345" y="543" type="qcurve"/>
      <point x="352" y="576" type="line"/>
      <point x="355" y="591"/>
      <point x="355" y="603" type="qcurve"/>
      <point x="355" y="638"/>
      <point x="313" y="679"/>
      <point x="274" y="679" type="qcurve"/>
      <point x="223" y="679"/>
      <point x="155" y="638" type="qcurve"/>
      <point x="146" y="663" type="line"/>
      <point x="222" y="709"/>
      <point x="282" y="709" type="qcurve"/>
      <point x="336" y="709"/>
      <point x="393" y="658"/>
      <point x="393" y="610" type="qcurve"/>
      <point x="393" y="601"/>
      <point x="391" y="582"/>
      <point x="389" y="572" type="qcurve"/>
      <point x="355" y="409" type="line"/>
      <point x="354" y="407"/>
      <point x="354" y="402" type="qcurve"/>
      <point x="354" y="392"/>
      <point x="366" y="391" type="qcurve"/>
      <point x="358" y="356" type="line"/>
      <point x="335" y="356"/>
      <point x="319" y="374"/>
      <point x="319" y="388" type="qcurve"/>
      <point x="319" y="400"/>
      <point x="322" y="415" type="qcurve"/>
      <point x="292" y="383"/>
      <point x="212" y="350"/>
    </contour>
    <contour>
      <point x="185" y="381" type="qcurve"/>
      <point x="207" y="381"/>
      <point x="254" y="393"/>
      <point x="295" y="414"/>
      <point x="324" y="442"/>
      <point x="327" y="458" type="qcurve"/>
      <point x="339" y="516" type="line"/>
      <point x="319" y="527"/>
      <point x="270" y="534"/>
      <point x="244" y="534" type="qcurve"/>
      <point x="189" y="534"/>
      <point x="116" y="487"/>
      <point x="116" y="446" type="qcurve"/>
      <point x="116" y="419"/>
      <point x="153" y="381"/>
    </contour>
  </outline>
</glyph>
<glyph name="acute" format="1">
  <advance width="195"/>
  <unicode hex="00B4"/>
  <outline>
    <contour>
      <point x="82" y="520" type="move" name="_top"/>
    </contour>
    <contour>
      <point x="59" y="638" type="line"/>
      <point x="38" y="651" type="line"/>
      <point x="114" y="730" type="line"/>
      <point x="158" y="730" type="line"/>
    </contour>
  </outline>
</glyph>
<glyph name="onesuperior" format="1">
  <advance width="246"/>
  <unicode hex="00B9"/>
  <outline>
    <contour>
      <point x="257" y="444" type="line"/>
      <point x="251" y="417" type="line"/>
      <point x="73" y="417" type="line"/>
      <point x="79" y="444" type="line"/>
      <point x="157" y="444" type="line"/>
      <point x="228" y="778" type="line"/>
      <point x="222" y="772"/>
      <point x="197" y="755"/>
      <point x="168" y="740"/>
      <point x="138" y="730"/>
      <point x="126" y="730" type="qcurve"/>
      <point x="132" y="757" type="line"/>
      <point x="147" y="757"/>
      <point x="182" y="773"/>
      <point x="213" y="793"/>
      <point x="234" y="810"/>
      <point x="234" y="811" type="qcurve"/>
      <point x="262" y="811" type="line"/>
      <point x="183" y="444" type="line"/>
    </contour>
  </outline>
</glyph>
<glyph name="Udieresis" format="1">
  <advance width="724"/>
  <unicode hex="00DC"/>
  <outline>
    <contour>
      <point x="397" y="835" type="line"/>
      <point x="414" y="917" type="line"/>
      <point x="445" y="917" type="line"/>
      <point x="428" y="835" type="line"/>
    </contour>
    <contour>
      <point x="517" y="835" type="line"/>
      <point x="534" y="917" type="line"/>
      <point x="565" y="917" type="line"/>
      <point x="548" y="835" type="line"/>
    </contour>
    <contour>
      <point x="298" y="-5" type="qcurve"/>
      <point x="237" y="-5"/>
      <point x="154" y="31"/>
      <point x="103" y="94"/>
      <point x="81" y="179"/>
      <point x="81" y="227" type="qcurve"/>
      <point x="81" y="287"/>
      <point x="95" y="354" type="qcurve"/>
      <point x="171" y="710" type="line"/>
      <point x="205" y="710" type="line"/>
      <point x="130" y="354" type="line"/>
      <point x="123" y="323"/>
      <point x="115" y="262"/>
      <point x="115" y="233" type="qcurve"/>
      <point x="115" y="190"/>
      <point x="134" y="115"/>
      <point x="178" y="60"/>
      <point x="251" y="28"/>
      <point x="304" y="28" type="qcurve"/>
      <point x="376" y="28"/>
      <point x="483" y="85"/>
      <point x="558" y="177"/>
      <point x="605" y="294"/>
      <point x="618" y="354" type="qcurve"/>
      <point x="693" y="710" type="line"/>
      <point x="727" y="710" type="line"/>
      <point x="652" y="354" type="line"/>
      <point x="637" y="283"/>
      <point x="581" y="153"/>
      <point x="494" y="54"/>
      <point x="376" y="-5"/>
    </contour>
  </outline>
</glyph>
<glyph name="germandbls" format="1">
  <advance width="525"/>
  <unicode hex="00DF"/>
  <outline>
    <contour>
      <point x="164" y="26" type="line"/>
      <point x="288" y="28"/>
      <point x="431" y="141"/>
      <point x="431" y="241" type="qcurve"/>
      <point x="431" y="307"/>
      <point x="351" y="386"/>
      <point x="281" y="386" type="qcurve"/>
      <point x="264" y="386" type="line"/>
      <point x="271" y="418" type="line"/>
      <point x="287" y="418" type="line"/>
      <point x="320" y="418"/>
      <point x="381" y="442"/>
      <point x="427" y="484"/>
      <point x="454" y="541"/>
      <point x="454" y="573" type="qcurve"/>
      <point x="454" y="622"/>
      <point x="390" y="682"/>
      <point x="338" y="682" type="qcurve"/>
      <point x="270" y="682"/>
      <point x="172" y="586"/>
      <point x="155" y="508" type="qcurve"/>
      <point x="48" y="0" type="line"/>
      <point x="15" y="0" type="line"/>
      <point x="123" y="511" type="line"/>
      <point x="133" y="556"/>
      <point x="175" y="631"/>
      <point x="234" y="685"/>
      <point x="306" y="714"/>
      <point x="346" y="714" type="qcurve"/>
      <point x="378" y="714"/>
      <point x="431" y="694"/>
      <point x="468" y="660"/>
      <point x="489" y="611"/>
      <point x="489" y="583" type="qcurve"/>
      <point x="489" y="552"/>
      <point x="464" y="492"/>
      <point x="423" y="444"/>
      <point x="371" y="410"/>
      <point x="343" y="404" type="qcurve"/>
      <point x="404" y="390"/>
      <point x="466" y="306"/>
      <point x="466" y="246" type="qcurve"/>
      <point x="466" y="189"/>
      <point x="423" y="97"/>
      <point x="344" y="33"/>
      <point x="229" y="-3"/>
      <point x="157" y="-6" type="qcurve"/>
    </contour>
  </outline>
</glyph>
<glyph name="ae" format="1">
  <advance width="884"/>
  <unicode hex="00E6"/>
  <outline>
    <contour>
      <point x="374" y="520" type="move" name="top"/>
    </contour>
    <contour>
      <point x="136" y="-10" type="qcurve"/>
      <point x="102" y="-10"/>
      <point x="51" y="11"/>
      <point x="17" y="47"/>
      <point x="0" y="94"/>
      <point x="0" y="121" type="qcurve"/>
      <point x="0" y="161"/>
      <point x="37" y="227"/>
      <point x="102" y="274"/>
      <point x="190" y="300"/>
      <point x="241" y="300" type="qcurve"/>
      <point x="274" y="300"/>
      <point x="341" y="289"/>
      <point x="370" y="280" type="qcurve"/>
      <point x="377" y="306"/>
      <point x="399" y="354"/>
      <point x="410" y="377" type="qcurve"/>
      <point x="410" y="432"/>
      <point x="346" y="499"/>
      <point x="289" y="499" type="qcurve"/>
      <point x="250" y="499"/>
      <point x="162" y="466"/>
      <point x="114" y="435" type="qcurve"/>
      <point x="104" y="460" type="line"/>
      <point x="160" y="495"/>
      <point x="253" y="528"/>
      <point x="297" y="528" type="qcurve"/>
      <point x="355" y="528"/>
      <point x="431" y="467"/>
      <point x="439" y="410" type="qcurve"/>
      <point x="481" y="463"/>
      <point x="596" y="528"/>
      <point x="659" y="528" type="qcurve"/>
      <point x="701" y="528"/>
      <point x="772" y="497"/>
      <point x="823" y="442"/>
      <point x="852" y="368"/>
      <point x="852" y="325" type="qcurve"/>
      <point x="852" y="304"/>
      <point x="845" y="259"/>
      <point x="839" y="245" type="qcurve"/>
      <point x="396" y="245" type="line"/>
      <point x="393" y="224"/>
      <point x="393" y="205" type="qcurve"/>
      <point x="393" y="165"/>
      <point x="416" y="97"/>
      <point x="459" y="47"/>
      <point x="520" y="19"/>
      <point x="557" y="19" type="qcurve"/>
      <point x="584" y="19"/>
      <point x="640" y="34"/>
      <point x="690" y="62"/>
      <point x="732" y="101"/>
      <point x="747" y="124" type="qcurve"/>
      <point x="776" y="116" type="line"/>
      <point x="760" y="89"/>
      <point x="710" y="42"/>
      <point x="650" y="9"/>
      <point x="582" y="-10"/>
      <point x="549" y="-10" type="qcurve"/>
      <point x="486" y="-10"/>
      <point x="396" y="55"/>
      <point x="375" y="109" type="qcurve"/>
      <point x="353" y="77"/>
      <point x="291" y="31"/>
      <point x="225" y="3"/>
      <point x="161" y="-10"/>
    </contour>
    <contour>
      <point x="148" y="19" type="qcurve"/>
      <point x="178" y="19"/>
      <point x="247" y="37"/>
      <point x="308" y="70"/>
      <point x="356" y="115"/>
      <point x="365" y="141" type="qcurve"/>
      <point x="358" y="165"/>
      <point x="358" y="197" type="qcurve"/>
      <point x="358" y="224"/>
      <point x="364" y="253" type="qcurve"/>
      <point x="335" y="264"/>
      <point x="271" y="274"/>
      <point x="240" y="274" type="qcurve"/>
      <point x="195" y="274"/>
      <point x="119" y="253"/>
      <point x="64" y="215"/>
      <point x="33" y="160"/>
      <point x="33" y="127" type="qcurve"/>
      <point x="33" y="106"/>
      <point x="46" y="67"/>
      <point x="75" y="37"/>
      <point x="118" y="19"/>
    </contour>
    <contour>
      <point x="812" y="272" type="line"/>
      <point x="818" y="297"/>
      <point x="818" y="324" type="qcurve"/>
      <point x="818" y="359"/>
      <point x="797" y="422"/>
      <point x="756" y="470"/>
      <point x="694" y="498"/>
      <point x="654" y="498" type="qcurve"/>
      <point x="612" y="498"/>
      <point x="532" y="464"/>
      <point x="464" y="404"/>
      <point x="414" y="321"/>
      <point x="401" y="272" type="qcurve"/>
    </contour>
  </outline>
</glyph>
<glyph name="eogonek" format="1">
  <advance width="525"/>
  <unicode hex="0119"/>
  <outline>
    <contour>
      <point x="164" y="-172" type="line"/>
      <point x="142" y="-166"/>
      <point x="120" y="-138"/>
      <point x="120" y="-119" type="qcurve"/>
      <point x="120" y="-92"/>
      <point x="160" y="-42"/>
      <point x="208" y="-9" type="qcurve"/>
      <point x="166" y="-6"/>
      <point x="99" y="30"/>
      <point x="53" y="89"/>
      <point x="29" y="166"/>
      <point x="29" y="210" type="qcurve"/>
      <point x="29" y="270"/>
      <point x="76" y="384"/>
      <point x="158" y="474"/>
      <point x="270" y="528"/>
      <point x="335" y="528" type="qcurve"/>
      <point x="363" y="528"/>
      <point x="419" y="510"/>
      <point x="464" y="476"/>
      <point x="492" y="424"/>
      <point x="492" y="390" type="qcurve"/>
      <point x="492" y="244"/>
      <point x="225" y="244" type="qcurve"/>
      <point x="190" y="244"/>
      <point x="114" y="246"/>
      <point x="67" y="249" type="qcurve"/>
      <point x="64" y="229"/>
      <point x="64" y="211" type="qcurve"/>
      <point x="64" y="172"/>
      <point x="85" y="102"/>
      <point x="127" y="50"/>
      <point x="189" y="19"/>
      <point x="230" y="19" type="qcurve"/>
      <point x="257" y="19"/>
      <point x="312" y="35"/>
      <point x="363" y="64"/>
      <point x="407" y="105"/>
      <point x="421" y="131" type="qcurve"/>
      <point x="451" y="122" type="line"/>
      <point x="419" y="67"/>
      <point x="307" y="-3"/>
      <point x="244" y="-9" type="qcurve"/>
      <point x="216" y="-26"/>
      <point x="179" y="-53"/>
      <point x="156" y="-77"/>
      <point x="147" y="-100"/>
      <point x="147" y="-112" type="qcurve"/>
      <point x="147" y="-142"/>
      <point x="183" y="-149" type="qcurve"/>
    </contour>
    <contour>
      <point x="330" y="498" type="qcurve"/>
      <point x="282" y="498"/>
      <point x="198" y="461"/>
      <point x="131" y="400"/>
      <point x="84" y="320"/>
      <point x="73" y="278" type="qcurve"/>
      <point x="119" y="275"/>
      <point x="193" y="273"/>
      <point x="228" y="273" type="qcurve"/>
      <point x="292" y="273"/>
      <point x="380" y="290"/>
      <point x="435" y="322"/>
      <point x="459" y="365"/>
      <point x="459" y="391" type="qcurve"/>
      <point x="459" y="419"/>
      <point x="435" y="460"/>
      <point x="398" y="486"/>
      <point x="352" y="498"/>
    </contour>
  </outline>
</glyph>
<glyph name="Ecaron" format="1">
  <advance width="586"/>
  <unicode hex="011A"/>
  <outline>
    <contour>
      <point x="333" y="904" type="line"/>
      <point x="358" y="918" type="line"/>
      <point x="426" y="855" type="line"/>
      <point x="520" y="918" type="line"/>
      <point x="539" y="904" type="line"/>
      <point x="432" y="826" type="line"/>
      <point x="406" y="826" type="line"/>
    </contour>
    <contour>
      <point x="181" y="710" type="line"/>
      <point x="619" y="710" type="line"/>
      <point x="612" y="678" type="line"/>
      <point x="209" y="678" type="line"/>
      <point x="145" y="379" type="line"/>
      <point x="498" y="379" type="line"/>
      <point x="491" y="347" type="line"/>
      <point x="138" y="347" type="line"/>
      <point x="71" y="32" type="line"/>
      <point x="483" y="32" type="line"/>
      <point x="477" y="0" type="line"/>
      <point x="30" y="0" type="line"/>
    </contour>
  </outline>
</glyph>
<glyph name="iogonek" format="1">
  <advance width="192"/>
  <unicode hex="012F"/>
  <outline>
    <contour>
      <point x="-32" y="-164" type="line"/>
      <point x="-54" y="-158"/>
      <point x="-76" y="-130"/>
      <point x="-76" y="-111" type="qcurve"/>
      <point x="-76" y="-83"/>
      <point x="-35" y="-33"/>
      <point x="16" y="1" type="qcurve"/>
      <point x="126" y="520" type="line"/>
      <point x="160" y="520" type="line"/>
      <point x="50" y="0" type="line"/>
      <point x="21" y="-18"/>
      <point x="-17" y="-45"/>
      <point x="-40" y="-69"/>
      <point x="-49" y="-92"/>
      <point x="-49" y="-104" type="qcurve"/>
      <point x="-49" y="-134"/>
      <point x="-13" y="-141" type="qcurve"/>
    </contour>
    <contour>
      <point x="171" y="730" type="line"/>
      <point x="205" y="730" type="line"/>
      <point x="187" y="646" type="line"/>
      <point x="153" y="646" type="line"/>
    </contour>
  </outline>
</glyph>
<glyph name="ij" format="1">
  <advance width="390"/>
  <unicode hex="0133"/>
  <outline>
    <contour>
      <point x="125" y="520" type="line"/>
      <point x="159" y="520" type="line"/>
      <point x="49" y="0" type="line"/>
      <point x="15" y="0" type="line"/>
    </contour>
    <contour>
      <point x="170" y="730" type="line"/>
      <point x="204" y="730" type="line"/>
      <point x="186" y="646" type="line"/>
      <point x="152" y="646" type="line"/>
    </contour>
    <contour>
      <point x="77" y="-173" type="qcurve"/>
      <point x="48" y="-173"/>
      <point x="1" y="-158"/>
      <point x="-14" y="-138" type="qcurve"/>
      <point x="11" y="-116" type="line"/>
      <point x="24" y="-131"/>
      <point x="62" y="-141"/>
      <point x="81" y="-141" type="qcurve"/>
      <point x="100" y="-141"/>
      <point x="140" y="-124"/>
      <point x="175" y="-95"/>
      <point x="201" y="-56"/>
      <point x="206" y="-33" type="qcurve"/>
      <point x="323" y="520" type="line"/>
      <point x="357" y="520" type="line"/>
      <point x="240" y="-32" type="line"/>
      <point x="233" y="-63"/>
      <point x="199" y="-115"/>
      <point x="153" y="-152"/>
      <point x="101" y="-173"/>
    </contour>
    <contour>
      <point x="368" y="730" type="line"/>
      <point x="402" y="730" type="line"/>
      <point x="384" y="646" type="line"/>
      <point x="350" y="646" type="line"/>
    </contour>
  </outline>
</glyph>
<glyph name="ncommaaccent" format="1">
  <advance width="546"/>
  <unicode hex="0146"/>
  <outline>
    <contour>
      <point x="161" y="-176" type="line"/>
      <point x="186" y="-114" type="line"/>
      <point x="174" y="-114" type="line"/>
      <point x="188" y="-50" type="line"/>
      <point x="224" y="-50" type="line"/>
      <point x="210" y="-114" type="line"/>
      <point x="181" y="-176" type="line"/>
    </contour>
    <contour>
      <point x="125" y="520" type="line"/>
      <point x="157" y="520" type="line"/>
      <point x="130" y="390" type="line"/>
      <point x="151" y="421"/>
      <point x="208" y="472"/>
      <point x="273" y="508"/>
      <point x="341" y="528"/>
      <point x="374" y="528" type="qcurve"/>
      <point x="431" y="528"/>
      <point x="484" y="465"/>
      <point x="484" y="402" type="qcurve"/>
      <point x="484" y="379"/>
      <point x="477" y="325"/>
      <point x="471" y="294" type="qcurve"/>
      <point x="409" y="0" type="line"/>
      <point x="375" y="0" type="line"/>
      <point x="436" y="290" type="line"/>
      <point x="448" y="348"/>
      <point x="448" y="390" type="qcurve"/>
      <point x="448" y="496"/>
      <point x="360" y="496" type="qcurve"/>
      <point x="327" y="496"/>
      <point x="256" y="470"/>
      <point x="191" y="424"/>
      <point x="136" y="362"/>
      <point x="118" y="325" type="qcurve"/>
      <point x="49" y="0" type="line"/>
      <point x="15" y="0" type="line"/>
    </contour>
  </outline>
</glyph>
<glyph name="oe" format="1">
  <advance width="996"/>
  <unicode hex="0153"/>
  <outline>
    <contour>
      <point x="215" y="-10" type="qcurve"/>
      <point x="173" y="-10"/>
      <point x="104" y="23"/>
      <point x="55" y="81"/>
      <point x="28" y="160"/>
      <point x="28" y="205" type="qcurve"/>
      <point x="28" y="270"/>
      <point x="80" y="387"/>
      <point x="165" y="476"/>
      <point x="275" y="528"/>
      <point x="332" y="528" type="qcurve"/>
      <point x="370" y="528"/>
      <point x="434" y="501"/>
      <point x="481" y="453"/>
      <point x="509" y="384"/>
      <point x="511" y="342" type="qcurve"/>
      <point x="531" y="385"/>
      <point x="588" y="454"/>
      <point x="655" y="502"/>
      <point x="732" y="528"/>
      <point x="773" y="528" type="qcurve"/>
      <point x="861" y="528"/>
      <point x="959" y="408"/>
      <point x="959" y="306" type="qcurve"/>
      <point x="959" y="274"/>
      <point x="954" y="250"/>
      <point x="951" y="245" type="qcurve"/>
      <point x="510" y="245" type="line"/>
      <point x="507" y="224"/>
      <point x="507" y="207" type="qcurve"/>
      <point x="507" y="167"/>
      <point x="532" y="98"/>
      <point x="577" y="48"/>
      <point x="640" y="19"/>
      <point x="678" y="19" type="qcurve"/>
      <point x="706" y="19"/>
      <point x="762" y="34"/>
      <point x="813" y="62"/>
      <point x="855" y="101"/>
      <point x="869" y="124" type="qcurve"/>
      <point x="898" y="116" type="line"/>
      <point x="881" y="88"/>
      <point x="829" y="42"/>
      <point x="768" y="9"/>
      <point x="702" y="-10"/>
      <point x="669" y="-10" type="qcurve"/>
      <point x="631" y="-10"/>
      <point x="564" y="17"/>
      <point x="513" y="67"/>
      <point x="481" y="135"/>
      <point x="477" y="176" type="qcurve"/>
      <point x="455" y="134"/>
      <point x="396" y="65"/>
      <point x="328" y="16"/>
      <point x="253" y="-10"/>
    </contour>
    <contour>
      <point x="222" y="22" type="qcurve"/>
      <point x="271" y="22"/>
      <point x="365" y="68"/>
      <point x="439" y="146"/>
      <point x="484" y="249"/>
      <point x="484" y="306" type="qcurve"/>
      <point x="484" y="346"/>
      <point x="461" y="416"/>
      <point x="419" y="467"/>
      <point x="361" y="496"/>
      <point x="325" y="496" type="qcurve"/>
      <point x="277" y="496"/>
      <point x="183" y="449"/>
      <point x="109" y="370"/>
      <point x="63" y="266"/>
      <point x="63" y="209" type="qcurve"/>
      <point x="63" y="169"/>
      <point x="86" y="101"/>
      <point x="127" y="51"/>
      <point x="186" y="22"/>
    </contour>
    <contour>
      <point x="924" y="272" type="line"/>
      <point x="927" y="294"/>
      <point x="927" y="317" type="qcurve"/>
      <point x="927" y="357"/>
      <point x="904" y="424"/>
      <point x="862" y="472"/>
      <point x="802" y="498"/>
      <point x="766" y="498" type="qcurve"/>
      <point x="724" y="498"/>
      <point x="645" y="464"/>
      <point x="578" y="404"/>
      <point x="528" y="321"/>
      <point x="515" y="272" type="qcurve"/>
    </contour>
  </outline>
</glyph>
<glyph name="Rcommaaccent" format="1">
  <advance width="619"/>
  <unicode hex="0156"/>
  <outline>
    <contour>
      <point x="194" y="-176" type="line"/>
      <point x="219" y="-114" type="line"/>
      <point x="207" y="-114" type="line"/>
      <point x="221" y="-50" type="line"/>
      <point x="257" y="-50" type="line"/>
      <point x="243" y="-114" type="line"/>
      <point x="214" y="-176" type="line"/>
    </contour>
    <contour>
      <point x="30" y="0" type="line"/>
      <point x="181" y="710" type="line"/>
      <point x="459" y="710" type="line"/>
      <point x="495" y="710"/>
      <point x="551" y="680"/>
      <point x="590" y="630"/>
      <point x="611" y="565"/>
      <point x="611" y="531" type="qcurve"/>
      <point x="611" y="486"/>
      <point x="577" y="399"/>
      <point x="518" y="329"/>
      <point x="440" y="282"/>
      <point x="396" y="278" type="qcurve"/>
      <point x="505" y="0" type="line"/>
      <point x="465" y="0" type="line"/>
      <point x="357" y="274" type="line"/>
      <point x="123" y="274" type="line"/>
      <point x="65" y="0" type="line"/>
    </contour>
    <contour>
      <point x="379" y="306" type="line"/>
      <point x="420" y="306"/>
      <point x="492" y="346"/>
      <point x="545" y="409"/>
      <point x="576" y="487"/>
      <point x="576" y="526" type="qcurve"/>
      <point x="576" y="556"/>
      <point x="558" y="611"/>
      <point x="525" y="653"/>
      <point x="479" y="678"/>
      <point x="451" y="678" type="qcurve"/>
      <point x="209" y="678" type="line"/>
      <point x="130" y="306" type="line"/>
    </contour>
  </outline>
</glyph>
<glyph name="uni015F" format="1">
  <advance width="455"/>
  <unicode hex="015F"/>
  <outline>
    <contour>
      <point x="65" y="-125" type="line"/>
      <point x="78" y="-132"/>
      <point x="120" y="-143"/>
      <point x="144" y="-143" type="qcurve"/>
      <point x="209" y="-143"/>
      <point x="209" y="-97" type="qcurve"/>
      <point x="209" y="-81"/>
      <point x="186" y="-69"/>
      <point x="169" y="-69" type="qcurve"/>
      <point x="149" y="-69"/>
      <point x="103" y="-79"/>
      <point x="89" y="-84" type="qcurve"/>
      <point x="145" y="-9" type="line"/>
      <point x="94" y="-6"/>
      <point x="12" y="34"/>
      <point x="-14" y="72" type="qcurve"/>
      <point x="9" y="95" type="line"/>
      <point x="41" y="57"/>
      <point x="117" y="19"/>
      <point x="169" y="19" type="qcurve"/>
      <point x="207" y="19"/>
      <point x="273" y="38"/>
      <point x="321" y="74"/>
      <point x="349" y="124"/>
      <point x="349" y="155" type="qcurve"/>
      <point x="349" y="176"/>
      <point x="330" y="204"/>
      <point x="294" y="226"/>
      <point x="241" y="243"/>
      <point x="207" y="252" type="qcurve"/>
      <point x="174" y="261"/>
      <point x="122" y="277"/>
      <point x="88" y="300"/>
      <point x="70" y="331"/>
      <point x="70" y="354" type="qcurve"/>
      <point x="70" y="397"/>
      <point x="106" y="463"/>
      <point x="165" y="506"/>
      <point x="242" y="528"/>
      <point x="283" y="528" type="qcurve"/>
      <point x="342" y="528"/>
      <point x="419" y="486"/>
      <point x="433" y="454" type="qcurve"/>
      <point x="408" y="437" type="line"/>
      <point x="394" y="467"/>
      <point x="319" y="499"/>
      <point x="273" y="499" type="qcurve"/>
      <point x="240" y="499"/>
      <point x="179" y="483"/>
      <point x="132" y="449"/>
      <point x="104" y="398"/>
      <point x="104" y="363" type="qcurve"/>
      <point x="104" y="327"/>
      <point x="162" y="297"/>
      <point x="220" y="282" type="qcurve"/>
      <point x="258" y="272"/>
      <point x="319" y="252"/>
      <point x="361" y="226"/>
      <point x="384" y="190"/>
      <point x="384" y="164" type="qcurve"/>
      <point x="384" y="126"/>
      <point x="352" y="64"/>
      <point x="295" y="18"/>
      <point x="218" y="-9"/>
      <point x="172" y="-10" type="qcurve"/>
      <point x="137" y="-55" type="line"/>
      <point x="147" y="-51"/>
      <point x="169" y="-49"/>
      <point x="177" y="-49" type="qcurve"/>
      <point x="233" y="-49"/>
      <point x="233" y="-93" type="qcurve"/>
      <point x="233" y="-129"/>
      <point x="182" y="-166"/>
      <point x="135" y="-166" type="qcurve"/>
      <point x="109" y="-166"/>
      <point x="66" y="-155"/>
      <point x="49" y="-147" type="qcurve"/>
    </contour>
  </outline>
</glyph>
<glyph name="uni0163" format="1">
  <advance width="293"/>
  <unicode hex="0163"/>
  <outline>
    <contour>
      <point x="25" y="-125" type="line"/>
      <point x="38" y="-132"/>
      <point x="80" y="-143"/>
      <point x="104" y="-143" type="qcurve"/>
      <point x="169" y="-143"/>
      <point x="169" y="-97" type="qcurve"/>
      <point x="169" y="-81"/>
      <point x="146" y="-69"/>
      <point x="129" y="-69" type="qcurve"/>
      <point x="109" y="-69"/>
      <point x="63" y="-79"/>
      <point x="49" y="-84" type="qcurve"/>
      <point x="109" y="-4" type="line"/>
      <point x="82" y="0"/>
      <point x="48" y="34"/>
      <point x="48" y="61" type="qcurve"/>
      <point x="48" y="66"/>
      <point x="49" y="76"/>
      <point x="50" y="81" type="qcurve"/>
      <point x="137" y="490" type="line"/>
      <point x="67" y="490" type="line"/>
      <point x="73" y="520" type="line"/>
      <point x="144" y="520" type="line"/>
      <point x="182" y="699" type="line"/>
      <point x="216" y="699" type="line"/>
      <point x="178" y="520" type="line"/>
      <point x="295" y="520" type="line"/>
      <point x="288" y="490" type="line"/>
      <point x="171" y="490" type="line"/>
      <point x="93" y="127" type="line"/>
      <point x="88" y="104"/>
      <point x="84" y="82"/>
      <point x="84" y="76" type="qcurve"/>
      <point x="84" y="52"/>
      <point x="115" y="27"/>
      <point x="137" y="27" type="qcurve"/>
      <point x="152" y="27"/>
      <point x="181" y="34"/>
      <point x="204" y="43"/>
      <point x="219" y="51"/>
      <point x="221" y="52" type="qcurve"/>
      <point x="227" y="24" type="line"/>
      <point x="225" y="22"/>
      <point x="209" y="14"/>
      <point x="185" y="5"/>
      <point x="154" y="-3"/>
      <point x="136" y="-4" type="qcurve"/>
      <point x="97" y="-55" type="line"/>
      <point x="107" y="-51"/>
      <point x="129" y="-49"/>
      <point x="137" y="-49" type="qcurve"/>
      <point x="193" y="-49"/>
      <point x="193" y="-93" type="qcurve"/>
      <point x="193" y="-129"/>
      <point x="142" y="-166"/>
      <point x="95" y="-166" type="qcurve"/>
      <point x="69" y="-166"/>
      <point x="26" y="-155"/>
      <point x="9" y="-147" type="qcurve"/>
    </contour>
  </outline>
</glyph>
<glyph name="tbar" format="1">
  <advance width="294"/>
  <unicode hex="0167"/>
  <outline>
    <contour>
      <point x="39" y="357" type="line"/>
      <point x="109" y="357" type="line"/>
      <point x="138" y="490" type="line"/>
      <point x="68" y="490" type="line"/>
      <point x="74" y="520" type="line"/>
      <point x="144" y="520" type="line"/>
      <point x="183" y="699" type="line"/>
      <point x="217" y="699" type="line"/>
      <point x="178" y="520" type="line"/>
      <point x="295" y="520" type="line"/>
      <point x="289" y="490" type="line"/>
      <point x="172" y="490" type="line"/>
      <point x="143" y="357" type="line"/>
      <point x="261" y="357" type="line"/>
      <point x="255" y="330" type="line"/>
      <point x="137" y="330" type="line"/>
      <point x="93" y="122" type="line"/>
      <point x="89" y="105"/>
      <point x="85" y="84"/>
      <point x="85" y="76" type="qcurve"/>
      <point x="85" y="51"/>
      <point x="115" y="27"/>
      <point x="138" y="27" type="qcurve"/>
      <point x="153" y="27"/>
      <point x="182" y="34"/>
      <point x="205" y="43"/>
      <point x="220" y="51"/>
      <point x="222" y="52" type="qcurve"/>
      <point x="228" y="24" type="line"/>
      <point x="226" y="22"/>
      <point x="208" y="13"/>
      <point x="180" y="3"/>
      <point x="144" y="-5"/>
      <point x="125" y="-5" type="qcurve"/>
      <point x="92" y="-5"/>
      <point x="49" y="30"/>
      <point x="49" y="61" type="qcurve"/>
      <point x="49" y="66"/>
      <point x="50" y="76"/>
      <point x="51" y="81" type="qcurve"/>
      <point x="104" y="330" type="line"/>
      <point x="34" y="330" type="line"/>
    </contour>
  </outline>
</glyph>
<glyph name="Uring" format="1">
  <advance width="724"/>
  <unicode hex="016E"/>
  <outline>
    <contour>
      <point x="418" y="847" type="qcurve"/>
      <point x="418" y="877"/>
      <point x="463" y="918"/>
      <point x="492" y="918" type="qcurve"/>
      <point x="514" y="918"/>
      <point x="539" y="891"/>
      <point x="539" y="870" type="qcurve"/>
      <point x="539" y="841"/>
      <point x="495" y="799"/>
      <point x="466" y="799" type="qcurve"/>
      <point x="444" y="799"/>
      <point x="418" y="826"/>
    </contour>
    <contour>
      <point x="487" y="899" type="qcurve"/>
      <point x="469" y="899"/>
      <point x="439" y="872"/>
      <point x="439" y="851" type="qcurve"/>
      <point x="439" y="837"/>
      <point x="456" y="818"/>
      <point x="470" y="818" type="qcurve"/>
      <point x="487" y="818"/>
      <point x="519" y="846"/>
      <point x="519" y="866" type="qcurve"/>
      <point x="519" y="881"/>
      <point x="501" y="899"/>
    </contour>
    <contour>
      <point x="298" y="-5" type="qcurve"/>
      <point x="237" y="-5"/>
      <point x="154" y="31"/>
      <point x="103" y="94"/>
      <point x="81" y="179"/>
      <point x="81" y="227" type="qcurve"/>
      <point x="81" y="287"/>
      <point x="95" y="354" type="qcurve"/>
      <point x="171" y="710" type="line"/>
      <point x="205" y="710" type="line"/>
      <point x="130" y="354" type="line"/>
      <point x="123" y="323"/>
      <point x="115" y="262"/>
      <point x="115" y="233" type="qcurve"/>
      <point x="115" y="190"/>
      <point x="134" y="115"/>
      <point x="178" y="60"/>
      <point x="251" y="28"/>
      <point x="304" y="28" type="qcurve"/>
      <point x="376" y="28"/>
      <point x="483" y="85"/>
      <point x="558" y="177"/>
      <point x="605" y="294"/>
      <point x="618" y="354" type="qcurve"/>
      <point x="693" y="710" type="line"/>
      <point x="727" y="710" type="line"/>
      <point x="652" y="354" type="line"/>
      <point x="637" y="283"/>
      <point x="581" y="153"/>
      <point x="494" y="54"/>
      <point x="376" y="-5"/>
    </contour>
  </outline>
</glyph>
<glyph name="uni01C4" format="1">
  <advance width="1275"/>
  <unicode hex="01C4"/>
  <outline>
    <contour>
      <point x="1000" y="904" type="line"/>
      <point x="1025" y="918" type="line"/>
      <point x="1093" y="855" type="line"/>
      <point x="1187" y="918" type="line"/>
      <point x="1206" y="904" type="line"/>
      <point x="1099" y="826" type="line"/>
      <point x="1073" y="826" type="line"/>
    </contour>
    <contour>
      <point x="653" y="30" type="line"/>
      <point x="1287" y="678" type="line"/>
      <point x="797" y="678" type="line"/>
      <point x="804" y="710" type="line"/>
      <point x="1336" y="710" type="line"/>
      <point x="1329" y="680" type="line"/>
      <point x="697" y="32" type="line"/>
      <point x="1189" y="32" type="line"/>
      <point x="1182" y="0" type="line"/>
      <point x="647" y="0" type="line"/>
    </contour>
    <contour>
      <point x="181" y="710" type="line"/>
      <point x="402" y="710" type="line"/>
      <point x="467" y="710"/>
      <point x="563" y="668"/>
      <point x="626" y="595"/>
      <point x="656" y="496"/>
      <point x="656" y="439" type="qcurve"/>
      <point x="656" y="345"/>
      <point x="595" y="184"/>
      <point x="487" y="67"/>
      <point x="339" y="0"/>
      <point x="251" y="0" type="qcurve"/>
      <point x="30" y="0" type="line"/>
    </contour>
    <contour>
      <point x="258" y="32" type="line"/>
      <point x="343" y="32"/>
      <point x="477" y="98"/>
      <point x="571" y="209"/>
      <point x="621" y="354"/>
      <point x="621" y="433" type="qcurve"/>
      <point x="621" y="487"/>
      <point x="593" y="577"/>
      <point x="536" y="642"/>
      <point x="451" y="678"/>
      <point x="395" y="678" type="qcurve"/>
      <point x="209" y="678" type="line"/>
      <point x="71" y="32" type="line"/>
    </contour>
  </outline>
</glyph>
<glyph name="uni01CC" format="1">
  <advance width="744"/>
  <unicode hex="01CC"/>
  <outline>
    <contour>
      <point x="432" y="-173" type="qcurve"/>
      <point x="403" y="-173"/>
      <point x="356" y="-158"/>
      <point x="341" y="-138" type="qcurve"/>
      <point x="366" y="-116" type="line"/>
      <point x="379" y="-131"/>
      <point x="417" y="-141"/>
      <point x="436" y="-141" type="qcurve"/>
      <point x="455" y="-141"/>
      <point x="495" y="-124"/>
      <point x="530" y="-95"/>
      <point x="556" y="-56"/>
      <point x="561" y="-33" type="qcurve"/>
      <point x="678" y="520" type="line"/>
      <point x="712" y="520" type="line"/>
      <point x="595" y="-32" type="line"/>
      <point x="588" y="-63"/>
      <point x="554" y="-115"/>
      <point x="508" y="-152"/>
      <point x="456" y="-173"/>
    </contour>
    <contour>
      <point x="723" y="730" type="line"/>
      <point x="757" y="730" type="line"/>
      <point x="739" y="646" type="line"/>
      <point x="705" y="646" type="line"/>
    </contour>
    <contour>
      <point x="125" y="520" type="line"/>
      <point x="157" y="520" type="line"/>
      <point x="130" y="390" type="line"/>
      <point x="151" y="421"/>
      <point x="208" y="472"/>
      <point x="273" y="508"/>
      <point x="341" y="528"/>
      <point x="374" y="528" type="qcurve"/>
      <point x="431" y="528"/>
      <point x="484" y="465"/>
      <point x="484" y="402" type="qcurve"/>
      <point x="484" y="379"/>
      <point x="477" y="325"/>
      <point x="471" y="294" type="qcurve"/>
      <point x="409" y="0" type="line"/>
      <point x="375" y="0" type="line"/>
      <point x="436" y="290" type="line"/>
      <point x="448" y="348"/>
      <point x="448" y="390" type="qcurve"/>
      <point x="448" y="496"/>
      <point x="360" y="496" type="qcurve"/>
      <point x="327" y="496"/>
      <point x="256" y="470"/>
      <point x="191" y="424"/>
      <point x="136" y="362"/>
      <point x="118" y="325" type="qcurve"/>
      <point x="49" y="0" type="line"/>
      <point x="15" y="0" type="line"/>
    </contour>
  </outline>
</glyph>
<glyph name="aringacute" format="1">
  <advance width="585"/>
  <unicode hex="01FB"/>
  <outline>
    <contour>
      <point x="214" y="-10" type="qcurve"/>
      <point x="171" y="-10"/>
      <point x="102" y="26"/>
      <point x="54" y="87"/>
      <point x="29" y="166"/>
      <point x="29" y="209" type="qcurve"/>
      <point x="29" y="270"/>
      <point x="77" y="385"/>
      <point x="158" y="474"/>
      <point x="263" y="528"/>
      <point x="319" y="528" type="qcurve"/>
      <point x="353" y="528"/>
      <point x="408" y="508"/>
      <point x="451" y="473"/>
      <point x="482" y="427"/>
      <point x="491" y="402" type="qcurve"/>
      <point x="516" y="520" type="line"/>
      <point x="551" y="520" type="line"/>
      <point x="452" y="57" type="line"/>
      <point x="450" y="51"/>
      <point x="450" y="45" type="qcurve"/>
      <point x="450" y="32"/>
      <point x="464" y="32" type="qcurve"/>
      <point x="457" y="0" type="line"/>
      <point x="455" y="0"/>
      <point x="449" y="-1"/>
      <point x="447" y="-1" type="qcurve"/>
      <point x="431" y="-1"/>
      <point x="416" y="18"/>
      <point x="416" y="31" type="qcurve"/>
      <point x="416" y="34"/>
      <point x="417" y="41"/>
      <point x="420" y="56"/>
      <point x="425" y="83"/>
      <point x="430" y="106" type="qcurve"/>
      <point x="388" y="54"/>
      <point x="272" y="-10"/>
    </contour>
    <contour>
      <point x="224" y="22" type="qcurve"/>
      <point x="254" y="22"/>
      <point x="322" y="46"/>
      <point x="385" y="88"/>
      <point x="433" y="142"/>
      <point x="442" y="172" type="qcurve"/>
      <point x="480" y="351" type="line"/>
      <point x="476" y="380"/>
      <point x="448" y="432"/>
      <point x="404" y="472"/>
      <point x="348" y="496"/>
      <point x="315" y="496" type="qcurve"/>
      <point x="265" y="496"/>
      <point x="174" y="445"/>
      <point x="105" y="364"/>
      <point x="64" y="263"/>
      <point x="64" y="212" type="qcurve"/>
      <point x="64" y="174"/>
      <point x="88" y="105"/>
      <point x="130" y="53"/>
      <point x="189" y="22"/>
    </contour>
    <contour>
      <point x="364" y="777" type="line"/>
      <point x="343" y="790" type="line"/>
      <point x="419" y="869" type="line"/>
      <point x="463" y="869" type="line"/>
    </contour>
    <contour>
      <point x="302" y="659" type="qcurve"/>
      <point x="302" y="689"/>
      <point x="347" y="730"/>
      <point x="376" y="730" type="qcurve"/>
      <point x="398" y="730"/>
      <point x="423" y="703"/>
      <point x="423" y="682" type="qcurve"/>
      <point x="423" y="653"/>
      <point x="379" y="611"/>
      <point x="350" y="611" type="qcurve"/>
      <point x="328" y="611"/>
      <point x="302" y="638"/>
    </contour>
    <contour>
      <point x="371" y="711" type="qcurve"/>
      <point x="353" y="711"/>
      <point x="323" y="684"/>
      <point x="323" y="663" type="qcurve"/>
      <point x="323" y="649"/>
      <point x="340" y="630"/>
      <point x="354" y="630" type="qcurve"/>
      <point x="371" y="630"/>
      <point x="403" y="658"/>
      <point x="403" y="678" type="qcurve"/>
      <point x="403" y="693"/>
      <point x="385" y="711"/>
    </contour>
  </outline>
</glyph>
<glyph name="ainvertedbreve" format="1">
  <advance width="585"/>
  <unicode hex="0203"/>
  <outline>
    <contour>
      <point x="214" y="-10" type="qcurve"/>
      <point x="171" y="-10"/>
      <point x="102" y="26"/>
      <point x="54" y="87"/>
      <point x="29" y="166"/>
      <point x="29" y="209" type="qcurve"/>
      <point x="29" y="270"/>
      <point x="77" y="385"/>
      <point x="158" y="474"/>
      <point x="263" y="528"/>
      <point x="319" y="528" type="qcurve"/>
      <point x="353" y="528"/>
      <point x="408" y="508"/>
      <point x="451" y="473"/>
      <point x="482" y="427"/>
      <point x="491" y="402" type="qcurve"/>
      <point x="516" y="520" type="line"/>
      <point x="551" y="520" type="line"/>
      <point x="452" y="57" type="line"/>
      <point x="450" y="51"/>
      <point x="450" y="45" type="qcurve"/>
      <point x="450" y="32"/>
      <point x="464" y="32" type="qcurve"/>
      <point x="457" y="0" type="line"/>
      <point x="455" y="0"/>
      <point x="449" y="-1"/>
      <point x="447" y="-1" type="qcurve"/>
      <point x="431" y="-1"/>
      <point x="416" y="18"/>
      <point x="416" y="31" type="qcurve"/>
      <point x="416" y="34"/>
      <point x="417" y="41"/>
      <point x="420" y="56"/>
      <point x="425" y="83"/>
      <point x="430" y="106" type="qcurve"/>
      <point x="388" y="54"/>
      <point x="272" y="-10"/>
    </contour>
    <contour>
      <point x="224" y="22" type="qcurve"/>
      <point x="254" y="22"/>
      <point x="322" y="46"/>
      <point x="385" y="88"/>
      <point x="433" y="142"/>
      <point x="442" y="172" type="qcurve"/>
      <point x="480" y="351" type="line"/>
      <point x="476" y="380"/>
      <point x="448" y="432"/>
      <point x="404" y="472"/>
      <point x="348" y="496"/>
      <point x="315" y="496" type="qcurve"/>
      <point x="265" y="496"/>
      <point x="174" y="445"/>
      <point x="105" y="364"/>
      <point x="64" y="263"/>
      <point x="64" y="212" type="qcurve"/>
      <point x="64" y="174"/>
      <point x="88" y="105"/>
      <point x="130" y="53"/>
      <point x="189" y="22"/>
    </contour>
    <contour>
      <point x="281" y="646" type="line"/>
      <point x="284" y="662"/>
      <point x="302" y="693"/>
      <point x="327" y="716"/>
      <point x="358" y="730"/>
      <point x="376" y="730" type="qcurve"/>
      <point x="407" y="730"/>
      <point x="438" y="689"/>
      <point x="438" y="663" type="qcurve"/>
      <point x="438" y="658"/>
      <point x="438" y="651"/>
      <point x="437" y="646" type="qcurve"/>
      <point x="412" y="646" type="line"/>
      <point x="414" y="656"/>
      <point x="414" y="661" type="qcurve"/>
      <point x="414" y="708"/>
      <point x="373" y="708" type="qcurve"/>
      <point x="347" y="708"/>
      <point x="311" y="670"/>
      <point x="306" y="646" type="qcurve"/>
    </contour>
  </outline>
</glyph>
<glyph name="oinvertedbreve" format="1">
  <advance width="564"/>
  <unicode hex="020F"/>
  <outline>
    <contour>
      <point x="281" y="646" type="line"/>
      <point x="284" y="662"/>
      <point x="302" y="693"/>
      <point x="327" y="716"/>
      <point x="358" y="730"/>
      <point x="376" y="730" type="qcurve"/>
      <point x="407" y="730"/>
      <point x="438" y="689"/>
      <point x="438" y="663" type="qcurve"/>
      <point x="438" y="658"/>
      <point x="438" y="651"/>
      <point x="437" y="646" type="qcurve"/>
      <point x="412" y="646" type="line"/>
      <point x="414" y="656"/>
      <point x="414" y="661" type="qcurve"/>
      <point x="414" y="708"/>
      <point x="373" y="708" type="qcurve"/>
      <point x="347" y="708"/>
      <point x="311" y="670"/>
      <point x="306" y="646" type="qcurve"/>
    </contour>
    <contour>
      <point x="216" y="-10" type="qcurve"/>
      <point x="173" y="-10"/>
      <point x="103" y="24"/>
      <point x="54" y="83"/>
      <point x="28" y="162"/>
      <point x="28" y="207" type="qcurve"/>
      <point x="28" y="270"/>
      <point x="80" y="387"/>
      <point x="166" y="475"/>
      <point x="274" y="528"/>
      <point x="331" y="528" type="qcurve"/>
      <point x="373" y="528"/>
      <point x="442" y="494"/>
      <point x="491" y="434"/>
      <point x="518" y="354"/>
      <point x="518" y="309" type="qcurve"/>
      <point x="518" y="247"/>
      <point x="467" y="131"/>
      <point x="383" y="43"/>
      <point x="274" y="-10"/>
    </contour>
    <contour>
      <point x="222" y="22" type="qcurve"/>
      <point x="270" y="22"/>
      <point x="364" y="68"/>
      <point x="438" y="146"/>
      <point x="484" y="248"/>
      <point x="484" y="304" type="qcurve"/>
      <point x="484" y="344"/>
      <point x="460" y="414"/>
      <point x="418" y="466"/>
      <point x="359" y="496"/>
      <point x="324" y="496" type="qcurve"/>
      <point x="277" y="496"/>
      <point x="183" y="449"/>
      <point x="109" y="370"/>
      <point x="63" y="267"/>
      <point x="63" y="211" type="qcurve"/>
      <point x="63" y="172"/>
      <point x="86" y="103"/>
      <point x="128" y="52"/>
      <point x="186" y="22"/>
    </contour>
  </outline>
</glyph>
<glyph name="breve" format="1">
  <advance width="246"/>
  <unicode hex="02D8"/>
  <outline>
    <contour>
      <point x="129" y="520" type="move" name="_top"/>
    </contour>
    <contour>
      <point x="117" y="668" type="qcurve"/>
      <point x="137" y="668"/>
      <point x="176" y="704"/>
      <point x="184" y="730" type="qcurve"/>
      <point x="208" y="730" type="line"/>
      <point x="204" y="713"/>
      <point x="185" y="682"/>
      <point x="159" y="659"/>
      <point x="128" y="646"/>
      <point x="113" y="646" type="qcurve"/>
      <point x="85" y="646"/>
      <point x="50" y="684"/>
      <point x="50" y="713" type="qcurve"/>
      <point x="50" y="718"/>
      <point x="51" y="725"/>
      <point x="52" y="730" type="qcurve"/>
      <point x="78" y="730" type="line"/>
      <point x="76" y="722"/>
      <point x="76" y="718" type="qcurve"/>
      <point x="76" y="698"/>
      <point x="99" y="668"/>
    </contour>
  </outline>
</glyph>
<glyph name="rdotbelow" format="1">
  <advance width="325"/>
  <unicode hex="1E5B"/>
  <outline>
    <contour>
      <point x="125" y="520" type="line"/>
      <point x="157" y="520" type="line"/>
      <point x="130" y="388" type="line"/>
      <point x="151" y="419"/>
      <point x="201" y="468"/>
      <point x="255" y="502"/>
      <point x="311" y="520"/>
      <point x="338" y="520" type="qcurve"/>
      <point x="343" y="520"/>
      <point x="348" y="519" type="qcurve"/>
      <point x="341" y="488" type="line"/>
      <point x="272" y="485"/>
      <point x="153" y="400"/>
      <point x="118" y="327" type="qcurve"/>
      <point x="49" y="0" type="line"/>
      <point x="15" y="0" type="line"/>
    </contour>
    <contour>
      <point x="-13" y="-138" type="line"/>
      <point x="4" y="-55" type="line"/>
      <point x="36" y="-55" type="line"/>
      <point x="19" y="-138" type="line"/>
    </contour>
  </outline>
</glyph>
<glyph name="Tdotbelow" format="1">
  <advance width="576"/>
  <unicode hex="1E6C"/>
  <outline>
    <contour>
      <point x="176" y="-138" type="line"/>
      <point x="193" y="-55" type="line"/>
      <point x="225" y="-55" type="line"/>
      <point x="208" y="-138" type="line"/>
    </contour>
    <contour>
      <point x="348" y="678" type="line"/>
      <point x="96" y="678" type="line"/>
      <point x="102" y="710" type="line"/>
      <point x="641" y="710" type="line"/>
      <point x="635" y="678" type="line"/>
      <point x="382" y="678" type="line"/>
      <point x="238" y="0" type="line"/>
      <point x="204" y="0" type="line"/>
    </contour>
  </outline>
</glyph>
<glyph name="etilde" format="1">
  <advance width="525"/>
  <unicode hex="1EBD"/>
  <outline>
    <contour>
      <point x="222" y="-10" type="qcurve"/>
      <point x="176" y="-10"/>
      <point x="104" y="25"/>
      <point x="55" y="85"/>
      <point x="29" y="165"/>
      <point x="29" y="210" type="qcurve"/>
      <point x="29" y="270"/>
      <point x="76" y="384"/>
      <point x="158" y="474"/>
      <point x="270" y="528"/>
      <point x="335" y="528" type="qcurve"/>
      <point x="363" y="528"/>
      <point x="419" y="510"/>
      <point x="464" y="476"/>
      <point x="492" y="424"/>
      <point x="492" y="390" type="qcurve"/>
      <point x="492" y="244"/>
      <point x="225" y="244" type="qcurve"/>
      <point x="190" y="244"/>
      <point x="114" y="246"/>
      <point x="67" y="249" type="qcurve"/>
      <point x="64" y="229"/>
      <point x="64" y="211" type="qcurve"/>
      <point x="64" y="172"/>
      <point x="85" y="102"/>
      <point x="127" y="50"/>
      <point x="189" y="19"/>
      <point x="230" y="19" type="qcurve"/>
      <point x="257" y="19"/>
      <point x="312" y="35"/>
      <point x="363" y="64"/>
      <point x="407" y="105"/>
      <point x="421" y="131" type="qcurve"/>
      <point x="451" y="122" type="line"/>
      <point x="434" y="92"/>
      <point x="383" y="44"/>
      <point x="323" y="9"/>
      <point x="256" y="-10"/>
    </contour>
    <contour>
      <point x="330" y="498" type="qcurve"/>
      <point x="282" y="498"/>
      <point x="198" y="461"/>
      <point x="131" y="400"/>
      <point x="84" y="320"/>
      <point x="73" y="278" type="qcurve"/>
      <point x="119" y="275"/>
      <point x="193" y="273"/>
      <point x="228" y="273" type="qcurve"/>
      <point x="292" y="273"/>
      <point x="380" y="290"/>
      <point x="435" y="322"/>
      <point x="459" y="365"/>
      <point x="459" y="391" type="qcurve"/>
      <point x="459" y="419"/>
      <point x="435" y="460"/>
      <point x="398" y="486"/>
      <point x="352" y="498"/>
    </contour>
    <contour>
      <point x="414" y="656" type="qcurve"/>
      <point x="393" y="656"/>
      <point x="364" y="668"/>
      <point x="340" y="682"/>
      <point x="318" y="694"/>
      <point x="303" y="694" type="qcurve"/>
      <point x="288" y="694"/>
      <point x="266" y="681"/>
      <point x="252" y="664"/>
      <point x="245" y="648"/>
      <point x="244" y="646" type="qcurve"/>
      <point x="219" y="646" type="line"/>
      <point x="219" y="649"/>
      <point x="229" y="674"/>
      <point x="251" y="700"/>
      <point x="285" y="721"/>
      <point x="310" y="721" type="qcurve"/>
      <point x="329" y="721"/>
      <point x="355" y="709"/>
      <point x="378" y="694"/>
      <point x="403" y="682"/>
      <point x="421" y="682" type="qcurve"/>
      <point x="440" y="682"/>
      <point x="465" y="696"/>
      <point x="480" y="713"/>
      <point x="487" y="728"/>
      <point x="487" y="730" type="qcurve"/>
      <point x="512" y="730" type="line"/>
      <point x="511" y="726"/>
      <point x="501" y="702"/>
      <point x="478" y="676"/>
      <point x="441" y="656"/>
    </contour>
  </outline>
</glyph>
<glyph name="Idotbelow" format="1">
  <advance width="223"/>
  <unicode hex="1ECA"/>
  <outline>
    <contour>
      <point x="181" y="709" type="line"/>
      <point x="216" y="709" type="line"/>
      <point x="65" y="0" type="line"/>
      <point x="30" y="0" type="line"/>
    </contour>
    <contour>
      <point x="2" y="-138" type="line"/>
      <point x="19" y="-55" type="line"/>
      <point x="51" y="-55" type="line"/>
      <point x="34" y="-138" type="line"/>
    </contour>
  </outline>
</glyph>
<glyph name="perthousand" format="1">
  <advance width="971"/>
  <unicode hex="2030"/>
  <outline>
    <contour>
      <point x="218" y="441" type="qcurve"/>
      <point x="168" y="441"/>
      <point x="108" y="506"/>
      <point x="108" y="554" type="qcurve"/>
      <point x="108" y="587"/>
      <point x="137" y="648"/>
      <point x="184" y="693"/>
      <point x="243" y="720"/>
      <point x="274" y="720" type="qcurve"/>
      <point x="325" y="720"/>
      <point x="384" y="654"/>
      <point x="384" y="606" type="qcurve"/>
      <point x="384" y="573"/>
      <point x="355" y="513"/>
      <point x="308" y="468"/>
      <point x="249" y="441"/>
    </contour>
    <contour>
      <point x="224" y="466" type="qcurve"/>
      <point x="248" y="466"/>
      <point x="295" y="489"/>
      <point x="332" y="527"/>
      <point x="355" y="576"/>
      <point x="355" y="602" type="qcurve"/>
      <point x="355" y="641"/>
      <point x="306" y="694"/>
      <point x="268" y="694" type="qcurve"/>
      <point x="244" y="694"/>
      <point x="197" y="671"/>
      <point x="160" y="634"/>
      <point x="138" y="585"/>
      <point x="138" y="558" type="qcurve"/>
      <point x="138" y="520"/>
      <point x="186" y="466"/>
    </contour>
    <contour>
      <point x="418" y="-10" type="qcurve"/>
      <point x="367" y="-10"/>
      <point x="308" y="56"/>
      <point x="308" y="104" type="qcurve"/>
      <point x="308" y="137"/>
      <point x="337" y="197"/>
      <point x="383" y="242"/>
      <point x="443" y="269"/>
      <point x="474" y="269" type="qcurve"/>
      <point x="524" y="269"/>
      <point x="583" y="203"/>
      <point x="583" y="155" type="qcurve"/>
      <point x="583" y="122"/>
      <point x="554" y="62"/>
      <point x="508" y="17"/>
      <point x="449" y="-10"/>
    </contour>
    <contour>
      <point x="423" y="16" type="qcurve"/>
      <point x="447" y="16"/>
      <point x="494" y="38"/>
      <point x="531" y="76"/>
      <point x="554" y="125"/>
      <point x="554" y="151" type="qcurve"/>
      <point x="554" y="189"/>
      <point x="506" y="244"/>
      <point x="468" y="244" type="qcurve"/>
      <point x="444" y="244"/>
      <point x="397" y="221"/>
      <point x="360" y="183"/>
      <point x="337" y="134"/>
      <point x="337" y="107" type="qcurve"/>
      <point x="337" y="69"/>
      <point x="384" y="16"/>
    </contour>
    <contour>
      <point x="739" y="-10" type="qcurve"/>
      <point x="689" y="-10"/>
      <point x="629" y="55"/>
      <point x="629" y="104" type="qcurve"/>
      <point x="629" y="137"/>
      <point x="658" y="197"/>
      <point x="705" y="242"/>
      <point x="764" y="269"/>
      <point x="795" y="269" type="qcurve"/>
      <point x="846" y="269"/>
      <point x="905" y="203"/>
      <point x="905" y="155" type="qcurve"/>
      <point x="905" y="122"/>
      <point x="876" y="62"/>
      <point x="829" y="17"/>
      <point x="769" y="-10"/>
    </contour>
    <contour>
      <point x="744" y="16" type="qcurve"/>
      <point x="769" y="16"/>
      <point x="816" y="38"/>
      <point x="853" y="76"/>
      <point x="876" y="124"/>
      <point x="876" y="150" type="qcurve"/>
      <point x="876" y="189"/>
      <point x="827" y="244"/>
      <point x="789" y="244" type="qcurve"/>
      <point x="765" y="244"/>
      <point x="718" y="221"/>
      <point x="681" y="183"/>
      <point x="658" y="134"/>
      <point x="658" y="107" type="qcurve"/>
      <point x="658" y="69"/>
      <point x="705" y="16"/>
    </contour>
    <contour>
      <point x="-1" y="16" type="line"/>
      <point x="675" y="712" type="line"/>
      <point x="692" y="695" type="line"/>
      <point x="16" y="-2" type="line"/>
    </contour>
  </outline>
</glyph>
<glyph name="zeroinferior" format="1">
  <advance width="427"/>
  <unicode hex="2080"/>
  <outline>
    <contour>
      <point x="132" y="-85" type="qcurve"/>
      <point x="96" y="-85"/>
      <point x="44" y="-56"/>
      <point x="11" y="-11"/>
      <point x="-4" y="46"/>
      <point x="-4" y="75" type="qcurve"/>
      <point x="-4" y="115"/>
      <point x="30" y="197"/>
      <point x="90" y="265"/>
      <point x="170" y="308"/>
      <point x="215" y="308" type="qcurve"/>
      <point x="251" y="308"/>
      <point x="302" y="279"/>
      <point x="335" y="232"/>
      <point x="350" y="175"/>
      <point x="350" y="147" type="qcurve"/>
      <point x="350" y="107"/>
      <point x="316" y="24"/>
      <point x="257" y="-43"/>
      <point x="178" y="-85"/>
    </contour>
    <contour>
      <point x="24" y="78" type="qcurve"/>
      <point x="24" y="53"/>
      <point x="38" y="4"/>
      <point x="66" y="-35"/>
      <point x="109" y="-59"/>
      <point x="138" y="-59" type="qcurve"/>
      <point x="179" y="-59"/>
      <point x="247" y="-19"/>
      <point x="295" y="42"/>
      <point x="322" y="113"/>
      <point x="322" y="143" type="qcurve"/>
      <point x="322" y="168"/>
      <point x="308" y="218"/>
      <point x="280" y="257"/>
      <point x="237" y="281"/>
      <point x="209" y="281" type="qcurve"/>
      <point x="168" y="281"/>
      <point x="100" y="241"/>
      <point x="51" y="180"/>
      <point x="24" y="109"/>
    </contour>
  </outline>
</glyph>
<glyph name="nineinferior" format="1">
  <advance width="384"/>
  <unicode hex="2089"/>
  <outline>
    <contour>
      <point x="7" y="157" type="qcurve"/>
      <point x="7" y="188"/>
      <point x="37" y="244"/>
      <point x="87" y="286"/>
      <point x="152" y="311"/>
      <point x="187" y="311" type="qcurve"/>
      <point x="243" y="311"/>
      <point x="310" y="244"/>
      <point x="310" y="186" type="qcurve"/>
      <point x="310" y="130"/>
      <point x="280" y="32"/>
      <point x="224" y="-42"/>
      <point x="147" y="-85"/>
      <point x="100" y="-85" type="qcurve"/>
      <point x="57" y="-85"/>
      <point x="-1" y="-45"/>
      <point x="-9" y="-10" type="qcurve"/>
      <point x="13" y="5" type="line"/>
      <point x="18" y="-24"/>
      <point x="69" y="-60"/>
      <point x="105" y="-60" type="qcurve"/>
      <point x="162" y="-60"/>
      <point x="253" y="36"/>
      <point x="273" y="124" type="qcurve"/>
      <point x="251" y="89"/>
      <point x="171" y="46"/>
      <point x="127" y="46" type="qcurve"/>
      <point x="100" y="46"/>
      <point x="56" y="63"/>
      <point x="24" y="93"/>
      <point x="7" y="134"/>
    </contour>
    <contour>
      <point x="181" y="286" type="qcurve"/>
      <point x="153" y="286"/>
      <point x="100" y="266"/>
      <point x="59" y="232"/>
      <point x="34" y="187"/>
      <point x="34" y="163" type="qcurve"/>
      <point x="34" y="124"/>
      <point x="91" y="70"/>
      <point x="136" y="70" type="qcurve"/>
      <point x="164" y="70"/>
      <point x="217" y="90"/>
      <point x="258" y="124"/>
      <point x="283" y="169"/>
      <point x="283" y="194" type="qcurve"/>
      <point x="283" y="232"/>
      <point x="226" y="286"/>
    </contour>
  </outline>
</glyph>
<glyph name="estimated" format="1">
  <advance width="616"/>
  <unicode hex="212E"/>
  <outline>
    <contour>
      <point x="305" y="13" type="qcurve"/>
      <point x="374" y="13"/>
      <point x="475" y="58"/>
      <point x="504" y="91" type="qcurve"/>
      <point x="520" y="73" type="line"/>
      <point x="485" y="38"/>
      <point x="380" y="-10"/>
      <point x="305" y="-10" type="qcurve"/>
      <point x="246" y="-10"/>
      <point x="149" y="34"/>
      <point x="80" y="108"/>
      <point x="42" y="206"/>
      <point x="42" y="260" type="qcurve"/>
      <point x="42" y="315"/>
      <point x="81" y="413"/>
      <point x="150" y="487"/>
      <point x="247" y="531"/>
      <point x="305" y="531" type="qcurve"/>
      <point x="363" y="531"/>
      <point x="461" y="487"/>
      <point x="530" y="412"/>
      <point x="569" y="312"/>
      <point x="569" y="255" type="qcurve"/>
      <point x="121" y="255" type="line"/>
      <point x="121" y="105" type="line"/>
      <point x="153" y="63"/>
      <point x="248" y="13"/>
    </contour>
    <contour>
      <point x="305" y="508" type="qcurve"/>
      <point x="248" y="508"/>
      <point x="153" y="457"/>
      <point x="121" y="414" type="qcurve"/>
      <point x="121" y="279" type="line"/>
      <point x="491" y="279" type="line"/>
      <point x="491" y="413" type="line"/>
      <point x="458" y="457"/>
      <point x="359" y="508"/>
    </contour>
  </outline>
</glyph>
<glyph name="oneeighth" format="1">
  <advance width="772"/>
  <unicode hex="215B"/>
  <outline>
    <contour>
      <point x="29" y="16" type="line"/>
      <point x="705" y="712" type="line"/>
      <point x="723" y="695" type="line"/>
      <point x="47" y="-2" type="line"/>
    </contour>
    <contour>
      <point x="249" y="364" type="line"/>
      <point x="243" y="337" type="line"/>
      <point x="65" y="337" type="line"/>
      <point x="71" y="364" type="line"/>
      <point x="149" y="364" type="line"/>
      <point x="220" y="698" type="line"/>
      <point x="214" y="692"/>
      <point x="189" y="675"/>
      <point x="160" y="660"/>
      <point x="130" y="650"/>
      <point x="118" y="650" type="qcurve"/>
      <point x="124" y="677" type="line"/>
      <point x="139" y="677"/>
      <point x="174" y="693"/>
      <point x="205" y="713"/>
      <point x="226" y="730"/>
      <point x="226" y="731" type="qcurve"/>
      <point x="254" y="731" type="line"/>
      <point x="175" y="364" type="line"/>
    </contour>
    <contour>
      <point x="523" y="-4" type="qcurve"/>
      <point x="466" y="-4"/>
      <point x="401" y="53"/>
      <point x="401" y="92" type="qcurve"/>
      <point x="401" y="114"/>
      <point x="422" y="152"/>
      <point x="455" y="182"/>
      <point x="496" y="202"/>
      <point x="516" y="208" type="qcurve"/>
      <point x="491" y="217"/>
      <point x="456" y="254"/>
      <point x="456" y="280" type="qcurve"/>
      <point x="456" y="305"/>
      <point x="484" y="346"/>
      <point x="528" y="373"/>
      <point x="582" y="388"/>
      <point x="608" y="388" type="qcurve"/>
      <point x="630" y="388"/>
      <point x="670" y="377"/>
      <point x="701" y="356"/>
      <point x="720" y="325"/>
      <point x="720" y="306" type="qcurve"/>
      <point x="720" y="288"/>
      <point x="704" y="257"/>
      <point x="677" y="232"/>
      <point x="641" y="214"/>
      <point x="622" y="208" type="qcurve"/>
      <point x="654" y="198"/>
      <point x="695" y="153"/>
      <point x="695" y="121" type="qcurve"/>
      <point x="695" y="93"/>
      <point x="666" y="47"/>
      <point x="618" y="14"/>
      <point x="556" y="-4"/>
    </contour>
    <contour>
      <point x="531" y="21" type="qcurve"/>
      <point x="554" y="21"/>
      <point x="603" y="35"/>
      <point x="643" y="61"/>
      <point x="668" y="97"/>
      <point x="668" y="120" type="qcurve"/>
      <point x="668" y="138"/>
      <point x="650" y="166"/>
      <point x="621" y="185"/>
      <point x="585" y="196"/>
      <point x="566" y="196" type="qcurve"/>
      <point x="543" y="196"/>
      <point x="494" y="181"/>
      <point x="454" y="155"/>
      <point x="429" y="118"/>
      <point x="429" y="96" type="qcurve"/>
      <point x="429" y="78"/>
      <point x="447" y="51"/>
      <point x="476" y="31"/>
      <point x="512" y="21"/>
    </contour>
    <contour>
      <point x="572" y="219" type="qcurve"/>
      <point x="591" y="219"/>
      <point x="634" y="230"/>
      <point x="669" y="251"/>
      <point x="692" y="281"/>
      <point x="692" y="301" type="qcurve"/>
      <point x="692" y="316"/>
      <point x="677" y="339"/>
      <point x="652" y="355"/>
      <point x="620" y="363"/>
      <point x="602" y="363" type="qcurve"/>
      <point x="580" y="363"/>
      <point x="538" y="351"/>
      <point x="505" y="330"/>
      <point x="484" y="299"/>
      <point x="484" y="281" type="qcurve"/>
      <point x="484" y="266"/>
      <point x="499" y="243"/>
      <point x="524" y="227"/>
      <point x="556" y="219"/>
    </contour>
  </outline>
</glyph>
<glyph name="seveneighths" format="1">
  <advance width="770"/>
  <unicode hex="215E"/>
  <outline>
    <contour>
      <point x="-11" y="16" type="line"/>
      <point x="665" y="712" type="line"/>
      <point x="683" y="695" type="line"/>
      <point x="7" y="-2" type="line"/>
    </contour>
    <contour>
      <point x="522" y="-4" type="qcurve"/>
      <point x="465" y="-4"/>
      <point x="400" y="53"/>
      <point x="400" y="92" type="qcurve"/>
      <point x="400" y="114"/>
      <point x="421" y="152"/>
      <point x="454" y="182"/>
      <point x="495" y="202"/>
      <point x="515" y="208" type="qcurve"/>
      <point x="490" y="217"/>
      <point x="455" y="254"/>
      <point x="455" y="280" type="qcurve"/>
      <point x="455" y="305"/>
      <point x="483" y="346"/>
      <point x="527" y="373"/>
      <point x="581" y="388"/>
      <point x="607" y="388" type="qcurve"/>
      <point x="629" y="388"/>
      <point x="669" y="377"/>
      <point x="700" y="356"/>
      <point x="719" y="325"/>
      <point x="719" y="306" type="qcurve"/>
      <point x="719" y="288"/>
      <point x="703" y="257"/>
      <point x="676" y="232"/>
      <point x="640" y="214"/>
      <point x="621" y="208" type="qcurve"/>
      <point x="653" y="198"/>
      <point x="694" y="153"/>
      <point x="694" y="121" type="qcurve"/>
      <point x="694" y="93"/>
      <point x="665" y="47"/>
      <point x="617" y="14"/>
      <point x="555" y="-4"/>
    </contour>
    <contour>
      <point x="530" y="21" type="qcurve"/>
      <point x="553" y="21"/>
      <point x="602" y="35"/>
      <point x="642" y="61"/>
      <point x="667" y="97"/>
      <point x="667" y="120" type="qcurve"/>
      <point x="667" y="138"/>
      <point x="649" y="166"/>
      <point x="620" y="185"/>
      <point x="584" y="196"/>
      <point x="565" y="196" type="qcurve"/>
      <point x="542" y="196"/>
      <point x="493" y="181"/>
      <point x="453" y="155"/>
      <point x="428" y="118"/>
      <point x="428" y="96" type="qcurve"/>
      <point x="428" y="78"/>
      <point x="446" y="51"/>
      <point x="475" y="31"/>
      <point x="511" y="21"/>
    </contour>
    <contour>
      <point x="571" y="219" type="qcurve"/>
      <point x="590" y="219"/>
      <point x="633" y="230"/>
      <point x="668" y="251"/>
      <point x="691" y="281"/>
      <point x="691" y="301" type="qcurve"/>
      <point x="691" y="316"/>
      <point x="676" y="339"/>
      <point x="651" y="355"/>
      <point x="619" y="363"/>
      <point x="601" y="363" type="qcurve"/>
      <point x="579" y="363"/>
      <point x="537" y="351"/>
      <point x="504" y="330"/>
      <point x="483" y="299"/>
      <point x="483" y="281" type="qcurve"/>
      <point x="483" y="266"/>
      <point x="498" y="243"/>
      <point x="523" y="227"/>
      <point x="555" y="219"/>
    </contour>
    <contour>
      <point x="370" y="704" type="line"/>
      <point x="127" y="704" type="line"/>
      <point x="133" y="730" type="line"/>
      <point x="418" y="730" type="line"/>
      <point x="118" y="342" type="line"/>
      <point x="88" y="342" type="line"/>
    </contour>
  </outline>
</glyph>
<glyph name="infinity" format="1">
  <advance width="699"/>
  <unicode hex="221E"/>
  <outline>
    <contour>
      <point x="211" y="517" type="qcurve"/>
      <point x="241" y="517"/>
      <point x="286" y="497"/>
      <point x="320" y="463"/>
      <point x="347" y="418"/>
      <point x="359" y="393" type="qcurve"/>
      <point x="370" y="418"/>
      <point x="397" y="463"/>
      <point x="432" y="497"/>
      <point x="477" y="517"/>
      <point x="507" y="517" type="qcurve"/>
      <point x="541" y="517"/>
      <point x="597" y="491"/>
      <point x="637" y="446"/>
      <point x="658" y="385"/>
      <point x="658" y="351" type="qcurve"/>
      <point x="658" y="317"/>
      <point x="635" y="257"/>
      <point x="594" y="212"/>
      <point x="538" y="186"/>
      <point x="506" y="186" type="qcurve"/>
      <point x="477" y="186"/>
      <point x="433" y="206"/>
      <point x="399" y="240"/>
      <point x="372" y="285"/>
      <point x="361" y="309" type="qcurve"/>
      <point x="350" y="285"/>
      <point x="324" y="240"/>
      <point x="288" y="206"/>
      <point x="242" y="186"/>
      <point x="211" y="186" type="qcurve"/>
      <point x="179" y="186"/>
      <point x="124" y="212"/>
      <point x="83" y="257"/>
      <point x="59" y="318"/>
      <point x="59" y="352" type="qcurve"/>
      <point x="59" y="386"/>
      <point x="82" y="446"/>
      <point x="123" y="491"/>
      <point x="178" y="517"/>
    </contour>
    <contour>
      <point x="211" y="216" type="qcurve"/>
      <point x="237" y="216"/>
      <point x="277" y="238"/>
      <point x="309" y="274"/>
      <point x="334" y="323"/>
      <point x="346" y="350" type="qcurve"/>
      <point x="334" y="378"/>
      <point x="309" y="427"/>
      <point x="277" y="465"/>
      <point x="237" y="487"/>
      <point x="211" y="487" type="qcurve"/>
      <point x="189" y="487"/>
      <point x="146" y="470"/>
      <point x="111" y="437"/>
      <point x="89" y="386"/>
      <point x="89" y="352" type="qcurve"/>
      <point x="89" y="319"/>
      <point x="111" y="268"/>
      <point x="146" y="233"/>
      <point x="189" y="216"/>
    </contour>
    <contour>
      <point x="507" y="216" type="qcurve"/>
      <point x="529" y="216"/>
      <point x="572" y="233"/>
      <point x="606" y="268"/>
      <point x="627" y="319"/>
      <point x="627" y="352" type="qcurve"/>
      <point x="627" y="386"/>
      <point x="606" y="437"/>
      <point x="572" y="470"/>
      <point x="529" y="486"/>
      <point x="507" y="486" type="qcurve"/>
      <point x="480" y="486"/>
      <point x="440" y="463"/>
      <point x="408" y="425"/>
      <point x="384" y="374"/>
      <point x="373" y="346" type="qcurve"/>
      <point x="384" y="320"/>
      <point x="410" y="273"/>
      <point x="442" y="237"/>
      <point x="481" y="216"/>
    </contour>
  </outline>
</glyph>
<glyph name="integral" format="1">
  <advance width="271"/>
  <unicode hex="222B"/>
  <outline>
    <contour>
      <point x="106" y="680" type="line"/>
      <point x="104" y="706"/>
      <point x="104" y="720"/>
      <point x="104" y="724" type="qcurve"/>
      <point x="104" y="766"/>
      <point x="148" y="820"/>
      <point x="186" y="820" type="qcurve"/>
      <point x="204" y="820"/>
      <point x="251" y="808"/>
      <point x="269" y="799" type="qcurve"/>
      <point x="259" y="773" type="line"/>
      <point x="245" y="780"/>
      <point x="204" y="791"/>
      <point x="193" y="791" type="qcurve"/>
      <point x="167" y="791"/>
      <point x="136" y="752"/>
      <point x="136" y="716" type="qcurve"/>
      <point x="136" y="712"/>
      <point x="136" y="699"/>
      <point x="138" y="675" type="qcurve"/>
      <point x="176" y="-26" type="line"/>
      <point x="178" y="-52"/>
      <point x="178" y="-66"/>
      <point x="178" y="-68" type="qcurve"/>
      <point x="178" y="-116"/>
      <point x="134" y="-167"/>
      <point x="96" y="-167" type="qcurve"/>
      <point x="78" y="-167"/>
      <point x="33" y="-155"/>
      <point x="15" y="-146" type="qcurve"/>
      <point x="24" y="-120" type="line"/>
      <point x="40" y="-127"/>
      <point x="76" y="-138"/>
      <point x="89" y="-138" type="qcurve"/>
      <point x="115" y="-138"/>
      <point x="147" y="-99"/>
      <point x="147" y="-60" type="qcurve"/>
      <point x="147" y="-57"/>
      <point x="147" y="-45"/>
      <point x="145" y="-22" type="qcurve"/>
    </contour>
  </outline>
</glyph>
<glyph name="A.sc" format="1">
  <advance width="559"/>
  <outline>
    <contour>
      <point x="277" y="707" type="move" name="top"/>
    </contour>
    <contour>
      <point x="581" y="8" type="move" name="bottom"/>
    </contour>
    <contour>
      <point x="321" y="542" type="line"/>
      <point x="348" y="542" type="line"/>
      <point x="471" y="0" type="line"/>
      <point x="437" y="0" type="line"/>
      <point x="395" y="183" type="line"/>
      <point x="121" y="183" type="line"/>
      <point x="1" y="0" type="line"/>
      <point x="-34" y="0" type="line"/>
    </contour>
    <contour>
      <point x="391" y="212" type="line"/>
      <point x="325" y="500" type="line"/>
      <point x="136" y="212" type="line"/>
    </contour>
  </outline>
</glyph>
<glyph name="G.sc" format="1">
  <advance width="592"/>
  <outline>
    <contour>
      <point x="311" y="707" type="move" name="top"/>
    </contour>
    <contour>
      <point x="323" y="0" type="move" name="bottom"/>
    </contour>
    <contour>
      <point x="457" y="86" type="line"/>
      <point x="357" y="-4"/>
      <point x="247" y="-4" type="qcurve"/>
      <point x="197" y="-4"/>
      <point x="120" y="35"/>
      <point x="66" y="99"/>
      <point x="38" y="182"/>
      <point x="38" y="226" type="qcurve"/>
      <point x="38" y="286"/>
      <point x="90" y="400"/>
      <point x="178" y="490"/>
      <point x="294" y="545"/>
      <point x="358" y="545" type="qcurve"/>
      <point x="400" y="545"/>
      <point x="463" y="528"/>
      <point x="508" y="496"/>
      <point x="538" y="453"/>
      <point x="546" y="428" type="qcurve"/>
      <point x="515" y="412" type="line"/>
      <point x="498" y="467"/>
      <point x="411" y="516"/>
      <point x="351" y="516" type="qcurve"/>
      <point x="292" y="516"/>
      <point x="190" y="464"/>
      <point x="115" y="382"/>
      <point x="71" y="280"/>
      <point x="71" y="229" type="qcurve"/>
      <point x="71" y="188"/>
      <point x="97" y="114"/>
      <point x="145" y="59"/>
      <point x="213" y="27"/>
      <point x="255" y="27" type="qcurve"/>
      <point x="307" y="27"/>
      <point x="411" y="73"/>
      <point x="465" y="123" type="qcurve"/>
      <point x="489" y="234" type="line"/>
      <point x="362" y="234" type="line"/>
      <point x="367" y="262" type="line"/>
      <point x="525" y="262" type="line"/>
      <point x="469" y="0" type="line"/>
      <point x="439" y="0" type="line"/>
    </contour>
  </outline>
</glyph>
<glyph name="O.sc" format="1">
  <advance width="623"/>
  <outline>
    <contour>
      <point x="321" y="707" type="move" name="top"/>
    </contour>
    <contour>
      <point x="321" y="0" type="move" name="bottom"/>
    </contour>
    <contour>
      <point x="247" y="-4" type="qcurve"/>
      <point x="197" y="-4"/>
      <point x="119" y="34"/>
      <point x="66" y="97"/>
      <point x="38" y="179"/>
      <point x="38" y="223" type="qcurve"/>
      <point x="38" y="284"/>
      <point x="93" y="400"/>
      <point x="183" y="490"/>
      <point x="301" y="545"/>
      <point x="364" y="545" type="qcurve"/>
      <point x="414" y="545"/>
      <point x="491" y="507"/>
      <point x="544" y="443"/>
      <point x="571" y="361"/>
      <point x="571" y="317" type="qcurve"/>
      <point x="571" y="256"/>
      <point x="517" y="140"/>
      <point x="427" y="50"/>
      <point x="310" y="-4"/>
    </contour>
    <contour>
      <point x="254" y="27" type="qcurve"/>
      <point x="312" y="27"/>
      <point x="416" y="78"/>
      <point x="494" y="161"/>
      <point x="539" y="263"/>
      <point x="539" y="314" type="qcurve"/>
      <point x="539" y="354"/>
      <point x="514" y="427"/>
      <point x="466" y="482"/>
      <point x="399" y="515"/>
      <point x="357" y="515" type="qcurve"/>
      <point x="299" y="515"/>
      <point x="195" y="464"/>
      <point x="117" y="382"/>
      <point x="71" y="279"/>
      <point x="71" y="227" type="qcurve"/>
      <point x="71" y="187"/>
      <point x="96" y="115"/>
      <point x="143" y="60"/>
      <point x="211" y="27"/>
    </contour>
  </outline>
</glyph>
<glyph name="Z.sc" format="1">
  <advance width="516"/>
  <outline>
    <contour>
      <point x="270" y="707" type="move" name="top"/>
    </contour>
    <contour>
      <point x="-23" y="28" type="line"/>
      <point x="486" y="512" type="line"/>
      <point x="84" y="512" type="line"/>
      <point x="91" y="542" type="line"/>
      <point x="532" y="542" type="line"/>
      <point x="526" y="514" type="line"/>
      <point x="18" y="30" type="line"/>
      <point x="420" y="30" type="line"/>
      <point x="414" y="0" type="line"/>
      <point x="-29" y="0" type="line"/>
    </contour>
  </outline>
</glyph>
<glyph name="one.denominator" format="1">
  <advance width="250"/>
  <outline>
    <contour>
      <point x="-11" y="26" type="line"/>
      <point x="70" y="26" type="line"/>
      <point x="141" y="360" type="line"/>
      <point x="135" y="354"/>
      <point x="110" y="337"/>
      <point x="80" y="323"/>
      <point x="49" y="313"/>
      <point x="37" y="313" type="qcurve"/>
      <point x="43" y="339" type="line"/>
      <point x="58" y="339"/>
      <point x="94" y="355"/>
      <point x="126" y="375"/>
      <point x="147" y="393"/>
      <point x="148" y="394" type="qcurve"/>
      <point x="175" y="394" type="line"/>
      <point x="97" y="26" type="line"/>
      <point x="173" y="26" type="line"/>
      <point x="167" y="0" type="line"/>
      <point x="-16" y="0" type="line"/>
    </contour>
  </outline>
</glyph>
<glyph name="two.denominator" format="1">
  <advance width="361"/>
  <outline>
    <contour>
      <point x="-24" y="0" type="line"/>
      <point x="-8" y="75"/>
      <point x="70" y="154"/>
      <point x="131" y="176" type="qcurve"/>
      <point x="157" y="185"/>
      <point x="212" y="203"/>
      <point x="258" y="228"/>
      <point x="287" y="266"/>
      <point x="287" y="296" type="qcurve"/>
      <point x="287" y="325"/>
      <point x="245" y="367"/>
      <point x="200" y="367" type="qcurve"/>
      <point x="174" y="367"/>
      <point x="132" y="355"/>
      <point x="98" y="337"/>
      <point x="73" y="316"/>
      <point x="65" y="308" type="qcurve"/>
      <point x="50" y="326" type="line"/>
      <point x="52" y="329"/>
      <point x="76" y="350"/>
      <point x="117" y="374"/>
      <point x="173" y="393"/>
      <point x="208" y="393" type="qcurve"/>
      <point x="265" y="393"/>
      <point x="317" y="340"/>
      <point x="317" y="302" type="qcurve"/>
      <point x="317" y="267"/>
      <point x="286" y="220"/>
      <point x="238" y="188"/>
      <point x="180" y="167"/>
      <point x="152" y="158" type="qcurve"/>
      <point x="114" y="145"/>
      <point x="65" y="112"/>
      <point x="36" y="76"/>
      <point x="22" y="41"/>
      <point x="19" y="26" type="qcurve"/>
      <point x="261" y="26" type="line"/>
      <point x="255" y="0" type="line"/>
    </contour>
  </outline>
</glyph>
